# Rhino

v 0.24311405420303345 -0.84701132774353027 -0.1367097795009613
v 0.24311405420303345 -0.84701132774353027 0.011184408329427242
v 1.085024356842041 -0.84701132774353027 -0.1367097795009613
v 1.085024356842041 -0.84701132774353027 0.011184408329427242
v 1.085024356842041 -0.84701132774353027 -0.1367097795009613
v 1.085024356842041 -0.84701132774353027 0.011184408329427242
v 1.085024356842041 1.0129647254943848 -0.1367097795009613
v 1.085024356842041 1.0129647254943848 0.011184408329427242
v 1.085024356842041 1.0129647254943848 -0.1367097795009613
v 1.085024356842041 1.0129647254943848 0.011184408329427242
v 0.24311405420303345 1.0129647254943848 -0.1367097795009613
v 0.24311405420303345 1.0129647254943848 0.011184408329427242
v 0.24311405420303345 1.0129647254943848 -0.1367097795009613
v 0.24311405420303345 1.0129647254943848 0.011184408329427242
v 0.24311405420303345 -0.84701132774353027 -0.1367097795009613
v 0.24311405420303345 -0.84701132774353027 0.011184408329427242
v 0.24311405420303345 -0.84701132774353027 -0.1367097795009613
v 0.24311405420303345 1.0129647254943848 -0.1367097795009613
v 1.085024356842041 -0.84701132774353027 -0.1367097795009613
v 1.085024356842041 1.0129647254943848 -0.1367097795009613
v 0.24311405420303345 -0.84701132774353027 0.011184408329427242
v 0.24311405420303345 1.0129647254943848 0.011184408329427242
v 1.085024356842041 -0.84701132774353027 0.011184408329427242
v 1.085024356842041 1.0129647254943848 0.011184408329427242
vt 0 0.068604052066802979
vt 0 0.13574326038360596
vt 0.38907426595687866 0.068604052066802979
vt 0.38907426595687866 0.13574326038360596
vt 0.91682147979736328 0
vt 0.8496822714805603 0
vt 0.91682147979736328 0.86279189586639404
vt 0.8496822714805603 0.86279189586639404
vt 0 0
vt 0 0.067139208316802979
vt 0.38907426595687866 0
vt 0.38907426595687866 0.067139208316802979
vt 0.8482174277305603 0
vt 0.78107821941375732 0
vt 0.8482174277305603 0.86279189586639404
vt 0.78107821941375732 0.86279189586639404
vt 0.39053910970687866 0
vt 0.39053910970687866 0.86279189586639404
vt 0.77961337566375732 0
vt 0.77961337566375732 0.86279189586639404
vt 0 0.13720810413360596
vt 0 0.99853515625
vt 0.38907426595687866 0.13720810413360596
vt 0.38907426595687866 0.99853515625
vn 0 -1 0
vn 0 -1 0
vn 0 -1 0
vn 0 -1 0
vn 1 0 0
vn 1 0 0
vn 1 0 0
vn 1 0 0
vn 0 1 0
vn 0 1 0
vn 0 1 0
vn 0 1 0
vn -1 0 0
vn -1 0 0
vn -1 0 0
vn -1 0 0
vn 0 0 -1
vn 0 0 -1
vn 0 0 -1
vn 0 0 -1
vn 0 0 1
vn 0 0 1
vn 0 0 1
vn 0 0 1
f 2/2/2 1/1/1 3/3/3 4/4/4
f 6/6/6 5/5/5 7/7/7 8/8/8
f 10/10/10 9/9/9 11/11/11 12/12/12
f 14/14/14 13/13/13 15/15/15 16/16/16
f 18/18/18 20/20/20 19/19/19 17/17/17
f 22/22/22 21/21/21 23/23/23 24/24/24
