# Rhino

v 0.46198937296867371 0.70169836282730103 0.73779404163360596
v 0.46199709177017212 0.70096653699874878 0.81404399871826172
v 0.95325934886932373 0.69952923059463501 0.73778408765792847
v 0.95326703786849976 0.69879746437072754 0.81403398513793945
v 0.95325934886932373 0.69952923059463501 0.73778408765792847
v 0.95326703786849976 0.69879746437072754 0.81403398513793945
v 0.95240890979766846 0.97281813621520996 0.7359357476234436
v 0.95241665840148926 0.97208636999130249 0.81218564510345459
v 0.95240890979766846 0.97281813621520996 0.7359357476234436
v 0.95241665840148926 0.97208636999130249 0.81218564510345459
v 0.46113899350166321 0.97498726844787598 0.73594570159912109
v 0.46114668250083923 0.97425544261932373 0.81219559907913208
v 0.46113899350166321 0.97498726844787598 0.73594570159912109
v 0.46114668250083923 0.97425544261932373 0.81219559907913208
v 0.46198937296867371 0.70169836282730103 0.73779404163360596
v 0.46199709177017212 0.70096653699874878 0.81404399871826172
v 0.46198937296867371 0.70169836282730103 0.73779404163360596
v 0.95325934886932373 0.69952923059463501 0.73778408765792847
v 0.95240890979766846 0.97281813621520996 0.7359357476234436
v 0.46113899350166321 0.97498726844787598 0.73594570159912109
v 0.46199709177017212 0.70096653699874878 0.81404399871826172
v 0.95326703786849976 0.69879746437072754 0.81403398513793945
v 0.95241665840148926 0.97208636999130249 0.81218564510345459
v 0.46114668250083923 0.97425544261932373 0.81219559907913208
vt 0.21439917385578156 0
vt 0.10793200880289078 0
vt 0.21439917385578156 0.69536894559860229
vt 0.10793200880289078 0.69536894559860229
vt 0.21586401760578156 0.10793200880289078
vt 0.21586401760578156 0.21439917385578156
vt 0.60269826650619507 0.10793200880289078
vt 0.60269826650619507 0.21439917385578156
vt 0.10646716505289078 0
vt 0 0
vt 0.10646716505289078 0.69536894559860229
vt 0 0.69536894559860229
vt 0.21586401760578156 0
vt 0.21586401760578156 0.10646716505289078
vt 0.60269826650619507 0
vt 0.60269826650619507 0.10646716505289078
vt 0.21586401760578156 0.61314618587493896
vt 0.90974843502044678 0.60793203115463257
vt 0.90974843502044678 0.99332094192504883
vt 0.21586401760578156 0.99853515625
vt 0.21586401760578156 0.22107821702957153
vt 0.90974843502044678 0.21586401760578156
vt 0.90974843502044678 0.6012529730796814
vt 0.21586401760578156 0.60646718740463257
vn -0.0044152364134788513 -0.99994421005249023 -0.0095965703949332237
vn -0.0044152364134788513 -0.99994421005249023 -0.0095965703949332237
vn -0.0044152364134788513 -0.99994421005249023 -0.0095965703949332237
vn -0.0044152364134788513 -0.99994421005249023 -0.0095965703949332237
vn 0.99999517202377319 0.0031112269498407841 -7.1219648816622794E-05
vn 0.99999517202377319 0.0031112269498407841 -7.1219648816622794E-05
vn 0.99999517202377319 0.0031112269498407841 -7.1219648816622794E-05
vn 0.99999517202377319 0.0031112269498407841 -7.1219648816622794E-05
vn 0.0044152364134788513 0.99994421005249023 0.0095965703949332237
vn 0.0044152364134788513 0.99994421005249023 0.0095965703949332237
vn 0.0044152364134788513 0.99994421005249023 0.0095965703949332237
vn 0.0044152364134788513 0.99994421005249023 0.0095965703949332237
vn -0.99999517202377319 -0.0031112269498407841 7.1219648816622794E-05
vn -0.99999517202377319 -0.0031112269498407841 7.1219648816622794E-05
vn -0.99999517202377319 -0.0031112269498407841 7.1219648816622794E-05
vn -0.99999517202377319 -0.0031112269498407841 7.1219648816622794E-05
vn -5.0186416046926752E-05 -0.0067633707076311111 -0.99997711181640625
vn -5.0186416046926752E-05 -0.0067633707076311111 -0.99997711181640625
vn -5.0186416046926752E-05 -0.0067633707076311111 -0.99997711181640625
vn -5.0186416046926752E-05 -0.0067633707076311111 -0.99997711181640625
vn 5.0186416046926752E-05 0.0067633707076311111 0.99997711181640625
vn 5.0186416046926752E-05 0.0067633707076311111 0.99997711181640625
vn 5.0186416046926752E-05 0.0067633707076311111 0.99997711181640625
vn 5.0186416046926752E-05 0.0067633707076311111 0.99997711181640625
f 2/2/2 1/1/1 3/3/3 4/4/4
f 6/6/6 5/5/5 7/7/7 8/8/8
f 10/10/10 9/9/9 11/11/11 12/12/12
f 14/14/14 13/13/13 15/15/15 16/16/16
f 20/20/20 19/19/19 18/18/18 17/17/17
f 24/24/24 21/21/21 22/22/22 23/23/23
