# Rhino

v 0.15349247751433034 -0.056390622200327534 -0.039565923395018909
v -0.013044092850512626 0.081452898954267661 -0.039990807498626879
v -0.12570111769859954 0.039065313513710231 -0.035557182765717843
v -0.087547167731320305 -0.044029514324915642 -0.04505091445081516
v 0.16827314769516744 -0.062686199608538939 -0.0002143757892058562
v -0.010618523156367771 0.084447732045390356 0.0028036527388634602
v -0.12048494221693505 0.041710825578564537 0.0069762039901363759
v -0.083557082284751547 -0.049486998644974522 -0.0026879102357971751
vn -0.4462466835975647 0.14790399372577667 0.88260310888290405
vn -0.1321958601474762 -0.84931528568267822 0.51106536388397217
vn 0.77253609895706177 -0.35342758893966675 0.5275195837020874
vn 0.4963899552822113 0.70767116546630859 0.50279074907302856
vn -0.62566292285919189 0.28833481669425964 -0.72485101222991943
vn -0.15014055371284485 -0.89395767450332642 -0.4222528338432312
vn 0.75420880317687988 -0.29976886510848999 -0.58421540260314941
vn 0.49004963040351868 0.74570006132125854 -0.45142307877540588
f 1//1 4//4 8//8 5//5
f 2//2 1//1 6//6
f 3//3 2//2 7//7
f 4//4 3//3 8//8
f 1//1 2//2 4//4
f 8//8 7//7 6//6
f 1//1 5//5 6//6
f 2//2 6//6 7//7
f 3//3 7//7 8//8
f 2//2 3//3 4//4
f 8//8 6//6 5//5
