# Rhino

v -0.065165529304588743 -0.088919863016370337 -0.066989420057069066
v 0.061089421762707929 0.023816172975219901 -0.025905838805941994
v 0.01881528109426589 0.12529718724036371 -0.024807462876226566
v -0.081190137284866071 -0.032915115647644766 -0.05333423432844045
v -0.056503764458397832 -0.10244267574658628 -0.027728415044941807
v 0.07430407843728748 0.0059503076454097692 0.0096138323897043132
v 0.024591818126083909 0.11509402421720588 0.016237698160775998
v -0.072528372438675048 -0.04643792837786076 -0.014073229316313302
vn 0.1169886440038681 0.51931589841842651 0.84653687477111816
vn -0.76162934303283691 0.030334766954183578 0.64730250835418701
vn -0.16356286406517029 -0.80461740493774414 0.57082223892211914
vn 0.94068604707717896 -0.16787013411521912 0.29483780264854431
vn 0.31021615862846375 0.83228772878646851 -0.45941606163978577
vn -0.94191759824752808 0.22302089631557465 -0.25110328197479248
vn 0.011621004901826382 -0.53712308406829834 -0.84342384338378906
vn 0.82052499055862427 -0.0065756551921367645 -0.57157278060913086
f 1//1 4//4 8//8 5//5
f 2//2 1//1 5//5
f 3//3 2//2 7//7
f 4//4 3//3 7//7
f 1//1 2//2 4//4
f 8//8 7//7 6//6
f 2//2 5//5 6//6
f 2//2 6//6 7//7
f 4//4 7//7 8//8
f 2//2 3//3 4//4
f 8//8 6//6 5//5
