# Rhino

v 0.092860130499590188 0.064048943696091376 -0.070294006907475837
v -0.064566309073682771 0.1037874961521229 -0.063360447998586533
v -0.07724345908996394 0.0042674942076351696 -0.017093138602914892
v -0.079662479780216844 -0.10121865584834278 -0.066894100562792325
v 0.080145224533064385 -0.063631916714132375 -0.073643896977807377
v 0.093058400663705243 0.068351379206718632 -0.027555255497138831
v -0.064368038909567993 0.10808993166275016 -0.020621696588249694
v -0.076277947306613469 -0.00020752264597345693 0.025612139211862006
v -0.078696967996866041 -0.1056936727019514 -0.024188822748015371
v 0.081110736316415188 -0.068106933567740779 -0.030938619163030423
vn 0.23310667276382446 0.31575316190719604 -0.91976147890090942
vn -0.59550607204437256 0.49176910519599915 -0.63524454832077026
vn -0.84132426977157593 0.045521829277276993 -0.53861051797866821
vn -0.53572463989257813 -0.25349423289299011 -0.80544382333755493
vn 0.62085086107254028 -0.55446290969848633 -0.5541796088218689
vn 0.73103439807891846 0.49692344665527344 0.46760651469230652
vn -0.13759957253932953 0.63646137714385986 0.75893563032150269
vn -0.6510624885559082 0.013153450563549995 0.75891011953353882
vn -0.37718310952186584 -0.81074130535125732 0.44769576191902161
vn 0.55027437210083008 -0.3698430061340332 0.74860823154449463
f 2//2 7//7 6//6 1//1
f 4//4 9//9 8//8 3//3
f 5//5 10//10 9//9 4//4
f 3//3 8//8 7//7
f 1//1 6//6 10//10
f 1//1 3//3 2//2
f 4//4 1//1 5//5
f 4//4 3//3 1//1
f 10//10 8//8 9//9
f 7//7 10//10 6//6
f 7//7 8//8 10//10
f 3//3 7//7 2//2
f 1//1 10//10 5//5
