# Rhino

v -0.11842128580744604 -0.0079513769285636249 -0.030100237522085127
v 0.043641567768331946 -0.10398797098520704 -0.036633697958587064
v 0.092247699041086539 0.010779971806594124 -0.043949769253056492
v 0.056606756239252931 0.11231843091177592 -0.050343765119177153
v -0.13858776786597415 -0.0093733365543844302 0.0069988890877408227
v 0.041534460734798273 -0.11120382675631388 0.0055680771770284521
v 0.09517484454843983 0.010253446011930404 -0.0010690035282686638
v 0.043783131678318155 0.11588289112657803 -0.0098033655168894285
vn 0.61789542436599731 0.064012885093688965 0.78365015983581543
vn -0.20187143981456757 0.71979469060897827 0.66418635845184326
vn -0.89644753932952881 0.031881190836429596 0.4420015811920166
vn -0.183002769947052 -0.70435863733291626 0.68584907054901123
vn 0.92329323291778564 -0.0015365125145763159 -0.38409280776977539
vn -0.31469923257827759 0.83242624998092651 -0.45610412955284119
vn -0.88529551029205322 -0.02595796063542366 -0.46430379152297974
vn -0.24944315850734711 -0.82666093111038208 -0.50439059734344482
f 2//2 1//1 6//6
f 3//3 2//2 7//7
f 4//4 3//3 7//7
f 1//1 4//4 8//8
f 1//1 2//2 3//3
f 8//8 7//7 6//6
f 1//1 5//5 6//6
f 2//2 6//6 7//7
f 4//4 7//7 8//8
f 1//1 8//8 5//5
f 1//1 3//3 4//4
f 8//8 6//6 5//5
