# Rhino

v 0.13742729204868959 0.043510116604156379 -0.036216244222943894
v -0.10361925561073396 0.052596257786533651 -0.046754616575416796
v -0.11072821142816819 -0.033957596227610853 -0.040533927684326509
v 0.0050386093345788363 -0.089244252015734271 -0.036984355202453023
v 0.1522467124519542 0.053230427786737367 0.0022672843823505762
v -0.099587635518919443 0.06425561544933478 -0.0059373889662166501
v -0.10944455948236415 -0.032463276448805201 0.0024125268506619557
v 0.011424228373384637 -0.096578311044533849 0.0046917879180212729
vn -0.49485409259796143 -0.15098850429058075 0.85575807094573975
vn 0.50891095399856567 -0.57252275943756104 0.64282757043838501
vn 0.75331825017929077 0.45217990875244141 0.477540522813797
vn -0.14219783246517181 0.81799817085266113 0.55736768245697021
vn -0.78550475835800171 -0.35071152448654175 -0.50988596677780151
vn 0.58734291791915894 -0.68597787618637085 -0.42949116230010986
vn 0.76849758625030518 0.39894989132881165 -0.50025033950805664
vn -0.13856324553489685 0.89380520582199097 -0.4265119731426239
f 2//2 1//1 5//5 6//6
f 3//3 2//2 7//7
f 4//4 3//3 7//7
f 1//1 4//4 8//8
f 1//1 2//2 4//4
f 8//8 7//7 6//6
f 2//2 6//6 7//7
f 4//4 7//7 8//8
f 1//1 8//8 5//5
f 2//2 3//3 4//4
f 8//8 6//6 5//5
