# Rhino

v 0.054506202879637367 -0.14610059705692974 -0.058090144055454346
v 0.048477353326855432 0.11375589350662343 -0.015944406379525489
v -0.10718030193278161 0.10678098638790617 -0.041036392637892327
v -0.11647496763803544 -0.041903204367890676 -0.045348881608506503
v 0.076855177646339534 -0.15779412636228241 -0.024827855173018526
v 0.068570516334667375 0.11854903111026741 0.020858526230832924
v -0.08934100142414092 0.10543331071347573 -0.0025805075952229362
v -0.095304073866752437 -0.049869335410105291 -0.0099349322182205324
vn -0.24634110927581787 0.42715653777122498 0.86997318267822266
vn -0.40687012672424316 -0.59380090236663818 0.69415932893753052
vn 0.5705413818359375 -0.75873297452926636 0.31433555483818054
vn 0.84998059272766113 0.4690457284450531 0.23985213041305542
vn -0.2445472776889801 0.83660733699798584 -0.49018847942352295
vn -0.55059105157852173 -0.77345973253250122 -0.31402149796485901
vn 0.5120275616645813 -0.48329451680183411 -0.71010857820510864
vn 0.63793957233428955 0.41820302605628967 -0.646636962890625
f 2//2 1//1 5//5
f 3//3 2//2 7//7
f 4//4 3//3 7//7
f 1//1 4//4 8//8
f 1//1 2//2 4//4
f 8//8 7//7 6//6
f 2//2 5//5 6//6
f 2//2 6//6 7//7
f 4//4 7//7 8//8
f 1//1 8//8 5//5
f 2//2 3//3 4//4
f 8//8 6//6 5//5
