# Rhino

v 0.24311405420303345 -0.21829734742641449 -0.1367097795009613
v 0.24311405420303345 -0.21829734742641449 0.087998926639556885
v 1.085024356842041 -0.21829734742641449 -0.1367097795009613
v 1.085024356842041 -0.21829734742641449 0.087998926639556885
v 1.085024356842041 -0.21829734742641449 -0.1367097795009613
v 1.085024356842041 -0.21829734742641449 0.087998926639556885
v 1.085024356842041 0.24539083242416382 -0.1367097795009613
v 1.085024356842041 0.24539083242416382 0.087998926639556885
v 1.085024356842041 0.24539083242416382 -0.1367097795009613
v 1.085024356842041 0.24539083242416382 0.087998926639556885
v 0.24311405420303345 0.24539083242416382 -0.1367097795009613
v 0.24311405420303345 0.24539083242416382 0.087998926639556885
v 0.24311405420303345 0.24539083242416382 -0.1367097795009613
v 0.24311405420303345 0.24539083242416382 0.087998926639556885
v 0.24311405420303345 -0.21829734742641449 -0.1367097795009613
v 0.24311405420303345 -0.21829734742641449 0.087998926639556885
v 0.24311405420303345 -0.21829734742641449 -0.1367097795009613
v 0.24311405420303345 0.24539083242416382 -0.1367097795009613
v 1.085024356842041 -0.21829734742641449 -0.1367097795009613
v 1.085024356842041 0.24539083242416382 -0.1367097795009613
v 0.24311405420303345 -0.21829734742641449 0.087998926639556885
v 0.24311405420303345 0.24539083242416382 0.087998926639556885
v 1.085024356842041 -0.21829734742641449 0.087998926639556885
v 1.085024356842041 0.24539083242416382 0.087998926639556885
vt 0.99853515625 0
vt 0.83507895469665527 0
vt 0.99853515625 0.61790543794631958
vt 0.83507895469665527 0.61790543794631958
vt 0.32837721705436707 0.34031587839126587
vt 0.16492103040218353 0.34031587839126587
vt 0.32837721705436707 0.68063175678253174
vt 0.16492103040218353 0.68063175678253174
vt 0.83361411094665527 0
vt 0.67015790939331055 0
vt 0.83361411094665527 0.61790543794631958
vt 0.67015790939331055 0.61790543794631958
vt 0.16345618665218353 0.34031587839126587
vt 0 0.34031587839126587
vt 0.16345618665218353 0.68063175678253174
vt 0 0.68063175678253174
vt 0.66869306564331055 0.34031587839126587
vt 0.32984206080436707 0.34031587839126587
vt 0.66869306564331055 0.95675641298294067
vt 0.32984206080436707 0.95675641298294067
vt 0 0
vt 0 0.33885103464126587
vt 0.61790543794631958 0
vt 0.61790543794631958 0.33885103464126587
vn 0 -1 0
vn 0 -1 0
vn 0 -1 0
vn 0 -1 0
vn 1 0 0
vn 1 0 0
vn 1 0 0
vn 1 0 0
vn 0 1 0
vn 0 1 0
vn 0 1 0
vn 0 1 0
vn -1 0 0
vn -1 0 0
vn -1 0 0
vn -1 0 0
vn 0 0 -1
vn 0 0 -1
vn 0 0 -1
vn 0 0 -1
vn 0 0 1
vn 0 0 1
vn 0 0 1
vn 0 0 1
f 2/2/2 1/1/1 3/3/3 4/4/4
f 6/6/6 5/5/5 7/7/7 8/8/8
f 10/10/10 9/9/9 11/11/11 12/12/12
f 14/14/14 13/13/13 15/15/15 16/16/16
f 18/18/18 20/20/20 19/19/19 17/17/17
f 22/22/22 21/21/21 23/23/23 24/24/24
