# Rhino

v 0.24311405420303345 -1.3720004558563232 -0.16297812759876251
v 0.24311405420303345 -1.3720004558563232 -0.015083943493664265
v 1.085024356842041 -1.3720004558563232 -0.16297812759876251
v 1.085024356842041 -1.3720004558563232 -0.015083943493664265
v 1.085024356842041 -1.3720004558563232 -0.16297812759876251
v 1.085024356842041 -1.3720004558563232 -0.015083943493664265
v 1.085024356842041 1.3900079727172852 -0.16297812759876251
v 1.085024356842041 1.3900079727172852 -0.015083943493664265
v 1.085024356842041 1.3900079727172852 -0.16297812759876251
v 1.085024356842041 1.3900079727172852 -0.015083943493664265
v 0.24311405420303345 1.3900079727172852 -0.16297812759876251
v 0.24311405420303345 1.3900079727172852 -0.015083943493664265
v 0.24311405420303345 1.3900079727172852 -0.16297812759876251
v 0.24311405420303345 1.3900079727172852 -0.015083943493664265
v 0.24311405420303345 -1.3720004558563232 -0.16297812759876251
v 0.24311405420303345 -1.3720004558563232 -0.015083943493664265
v 0.24311405420303345 -1.3720004558563232 -0.16297812759876251
v 0.24311405420303345 1.3900079727172852 -0.16297812759876251
v 1.085024356842041 -1.3720004558563232 -0.16297812759876251
v 1.085024356842041 1.3900079727172852 -0.16297812759876251
v 0.24311405420303345 -1.3720004558563232 -0.015083943493664265
v 0.24311405420303345 1.3900079727172852 -0.015083943493664265
v 1.085024356842041 -1.3720004558563232 -0.015083943493664265
v 1.085024356842041 1.3900079727172852 -0.015083943493664265
vt 0.09673251211643219 0.067482016980648041
vt 0.09673251211643219 0.11584827303886414
vt 0.37206485867500305 0.067482016980648041
vt 0.37206485867500305 0.11584827303886414
vt 0.09526766836643219 0
vt 0.048366256058216095 0
vt 0.09526766836643219 0.901802659034729
vt 0.048366256058216095 0.901802659034729
vt 0.09673251211643219 0
vt 0.09673251211643219 0.048366256058216095
vt 0.37206485867500305 0
vt 0.37206485867500305 0.048366256058216095
vt 0.046901412308216095 0
vt 0 0
vt 0.046901412308216095 0.901802659034729
vt 0 0.901802659034729
vt 0.99853515625 0.51911574602127075
vt 0.09673251211643219 0.51911574602127075
vt 0.99853515625 0.79444807767868042
vt 0.09673251211643219 0.79444807767868042
vt 0.99853515625 0.13496403396129608
vt 0.09673251211643219 0.13496403396129608
vt 0.99853515625 0.41029638051986694
vt 0.09673251211643219 0.41029638051986694
vn 0 -1 0
vn 0 -1 0
vn 0 -1 0
vn 0 -1 0
vn 1 0 0
vn 1 0 0
vn 1 0 0
vn 1 0 0
vn 0 1 0
vn 0 1 0
vn 0 1 0
vn 0 1 0
vn -1 0 0
vn -1 0 0
vn -1 0 0
vn -1 0 0
vn 0 0 -1
vn 0 0 -1
vn 0 0 -1
vn 0 0 -1
vn 0 0 1
vn 0 0 1
vn 0 0 1
vn 0 0 1
f 2/2/2 1/1/1 3/3/3 4/4/4
f 6/6/6 5/5/5 7/7/7 8/8/8
f 10/10/10 9/9/9 11/11/11 12/12/12
f 14/14/14 13/13/13 15/15/15 16/16/16
f 18/18/18 20/20/20 19/19/19 17/17/17
f 22/22/22 21/21/21 23/23/23 24/24/24
