# Rhino

v 0.076700925827026367 -0.12801012396812439 0.0020000012591481209
v -0.076700940728187561 -0.12801012396812439 0.002000004518777132
v 0.076700925827026367 0.12801012396812439 0.0020000012591481209
v -0.076700940728187561 0.12801012396812439 0.002000004518777132
v -0.076700940728187561 2.422460809725635E-08 0.002000004518777132
v -0.076700940728187561 2.422460809725635E-08 0.002000004518777132
v -0.076700940728187561 -0.12801012396812439 0.002000004518777132
v -0.076700940728187561 2.422460809725635E-08 -0.0020000026561319828
v -0.076700940728187561 -0.12801012396812439 -0.0020000026561319828
v -0.076700940728187561 0.12801012396812439 0.002000004518777132
v -0.076700940728187561 2.422460809725635E-08 0.002000004518777132
v -0.076700940728187561 0.12801012396812439 -0.0020000026561319828
v -0.076700940728187561 2.422460809725635E-08 -0.0020000026561319828
v 0.076700925827026367 0.12801012396812439 0.0020000012591481209
v -0.076700940728187561 0.12801012396812439 0.002000004518777132
v 0.076700933277606964 0.12801012396812439 -0.001999993110075593
v -0.076700940728187561 0.12801012396812439 -0.0020000026561319828
v 0.076700925827026367 -0.12801012396812439 0.0020000012591481209
v 0.076700925827026367 0.12801012396812439 0.0020000012591481209
v 0.076700940728187561 -0.10831627994775772 -9.7940713317257178E-09
v 0.076700940728187561 0.1083163246512413 -9.7940713317257178E-09
v 0.076700933277606964 -0.12801012396812439 -0.001999993110075593
v 0.076700933277606964 0.12801012396812439 -0.001999993110075593
v 0.076700940728187561 0.11816319078207016 -9.7940713317257178E-09
v 0.076700940728187561 0.1083163246512413 -0.0010000014444813132
v 0.076700940728187561 0.11816319078207016 -0.0010000014444813132
v 0.076700925827026367 0.1083163246512413 0.0010000097099691629
v 0.076700925827026367 0.11816319078207016 0.0010000097099691629
v 0.076700940728187561 -0.11816320568323135 -9.7940713317257178E-09
v 0.076700925827026367 -0.10831627994775772 0.0010000097099691629
v 0.076700925827026367 -0.11816320568323135 0.0010000097099691629
v 0.076700940728187561 -0.10831627994775772 -0.0010000014444813132
v 0.076700940728187561 -0.11816320568323135 -0.0010000014444813132
v 0.076700940728187561 -0.04923466220498085 -9.7940713317257178E-09
v 0.076700940728187561 -0.068928547203540802 -9.7940713317257178E-09
v 0.076700940728187561 0.049234714359045029 -9.7940713317257178E-09
v 0.076700940728187561 -0.029540812596678734 -9.7940713317257178E-09
v 0.076700940728187561 -0.0098469015210866928 -9.7940713317257178E-09
v 0.076700940728187561 0.0098468903452157974 -9.7940713317257178E-09
v 0.076700940728187561 0.029540801420807838 -9.7940713317257178E-09
v 0.076700940728187561 0.06892850250005722 -9.7940713317257178E-09
v 0.076700940728187561 0.088622413575649261 -9.7940713317257178E-09
v -0.076700940728187561 -0.12801012396812439 0.002000004518777132
v 0.076700925827026367 -0.12801012396812439 0.0020000012591481209
v -0.076700940728187561 -0.12801012396812439 -0.0020000026561319828
v 0.076700933277606964 -0.12801012396812439 -0.001999993110075593
v 0.076700933277606964 -0.12801012396812439 -0.001999993110075593
v -0.076700940728187561 -0.12801012396812439 -0.0020000026561319828
v 0.076700933277606964 0.12801012396812439 -0.001999993110075593
v -0.076700940728187561 0.12801012396812439 -0.0020000026561319828
v -0.076700940728187561 2.422460809725635E-08 -0.0020000026561319828
vt 0.03327343612909317 0.022182291373610497
vt 0.03327343612909317 0.50962632894515991
vt 0.84777361154556274 0.022182291373610497
vt 0.84777361154556274 0.50962632894515991
vt 0.44052353501319885 0.50962632894515991
vt 0.022182291373610497 0
vt 0.022182291373610497 0.40798249840736389
vt 0.03180859237909317 0
vt 0.03180859237909317 0.40798249840736389
vt 0.011091145686805248 0
vt 0.011091145686805248 0.40798249840736389
vt 0.020717447623610497 0
vt 0.020717447623610497 0.40798249840736389
vt 0.52218228578567505 0.011091145686805248
vt 0.03327343612909317 0.011091145686805248
vt 0.52218228578567505 0.020717447623610497
vt 0.03327343612909317 0.020717447623610497
vt 0 0
vt 0 0.81596499681472778
vt 0.0048131509684026241 0.06276654452085495
vt 0.0048131509684026241 0.75319850444793701
vt 0.0096263019368052483 0
vt 0.0096263019368052483 0.81596499681472778
vt 0.0048131509684026241 0.78458172082901001
vt 0.0072197262197732925 0.75319850444793701
vt 0.0072197262197732925 0.78458172082901001
vt 0.0024065754842013121 0.75319850444793701
vt 0.0024065754842013121 0.78458172082901001
vt 0.0048131509684026241 0.031383272260427475
vt 0.0024065754842013121 0.06276654452085495
vt 0.0024065754842013121 0.031383272260427475
vt 0.0072197262197732925 0.06276654452085495
vt 0.0072197262197732925 0.031383272260427475
vt 0.0048131509684026241 0.2510661780834198
vt 0.0048131509684026241 0.18829962611198425
vt 0.0048131509684026241 0.56489884853363037
vt 0.0048131509684026241 0.31383270025253296
vt 0.0048131509684026241 0.37659925222396851
vt 0.0048131509684026241 0.43936580419540405
vt 0.0048131509684026241 0.5021323561668396
vt 0.0048131509684026241 0.62766540050506592
vt 0.0048131509684026241 0.69043195247650146
vt 0.52218228578567505 0
vt 0.03327343612909317 0
vt 0.52218228578567505 0.0096263019368052483
vt 0.03327343612909317 0.0096263019368052483
vt 0.03327343612909317 0.51109117269515991
vt 0.03327343612909317 0.99853515625
vt 0.84777361154556274 0.51109117269515991
vt 0.84777361154556274 0.99853515625
vt 0.44052353501319885 0.99853515625
vn 3.1965353031182531E-08 0 1
vn 3.1965353031182531E-08 0 1
vn 3.1965353031182531E-08 0 1
vn 3.1965353031182531E-08 0 1
vn 3.1965353031182531E-08 0 1
vn -1 0 3.1965353031182531E-08
vn -1 0 3.1965353031182531E-08
vn -1 0 3.1965353031182531E-08
vn -1 0 3.1965353031182531E-08
vn -1 0 3.1965353031182531E-08
vn -1 0 3.1965353031182531E-08
vn -1 0 3.1965353031182531E-08
vn -1 0 3.1965353031182531E-08
vn 0 1 0
vn 0 1 0
vn 0 1 0
vn 0 1 0
vn 1 0 -3.1965353031182531E-08
vn 1 0 -3.1965353031182531E-08
vn 1 0 -3.1965353031182531E-08
vn 1 0 -3.1965353031182531E-08
vn 1 0 -3.1965353031182531E-08
vn 1 0 -3.1965353031182531E-08
vn 1 0 -3.1965353031182531E-08
vn 1 0 -3.1965353031182531E-08
vn 1 0 -3.1965353031182531E-08
vn 1 0 -3.1965353031182531E-08
vn 1 0 -3.1965353031182531E-08
vn 1 0 -3.1965353031182531E-08
vn 1 0 -3.1965353031182531E-08
vn 1 0 -3.1965353031182531E-08
vn 1 0 -3.1965353031182531E-08
vn 1 0 -3.1965353031182531E-08
vn 1 0 -3.1965353031182531E-08
vn 1 0 -3.1965353031182531E-08
vn 1 0 -3.1965353031182531E-08
vn 1 0 -3.1965353031182531E-08
vn 1 0 -3.1965353031182531E-08
vn 1 0 -3.1965353031182531E-08
vn 1 0 -3.1965353031182531E-08
vn 1 0 -3.1965353031182531E-08
vn 1 0 -3.1965353031182531E-08
vn 0 -1 0
vn 0 -1 0
vn 0 -1 0
vn 0 -1 0
vn -3.1965353031182531E-08 0 -1
vn -3.1965353031182531E-08 0 -1
vn -3.1965353031182531E-08 0 -1
vn -3.1965353031182531E-08 0 -1
vn -3.1965353031182531E-08 0 -1
f 5/5/5 2/2/2 1/1/1 3/3/3 4/4/4
f 7/7/7 6/6/6 8/8/8 9/9/9
f 11/11/11 10/10/10 12/12/12 13/13/13
f 15/15/15 14/14/14 16/16/16 17/17/17
f 18/18/18 22/22/22 23/23/23 19/19/19
f 44/44/44 43/43/43 45/45/45 46/46/46
f 47/47/47 48/48/48 51/51/51 50/50/50 49/49/49
