# Rhino

v 0.076700948178768158 -0.085766792297363281 0.0019999968353658915
v -0.076700955629348755 -0.085766792297363281 0.0019999982323497534
v 0.076700948178768158 0.085766822099685669 0.0019999968353658915
v -0.076700955629348755 0.085766822099685669 0.0019999982323497534
v -0.076700955629348755 -2.6737524194686557E-08 0.0019999982323497534
v -0.076700955629348755 -2.6737524194686557E-08 0.0019999982323497534
v -0.076700955629348755 -0.085766792297363281 0.0019999982323497534
v -0.076700955629348755 -2.6737524194686557E-08 -0.0020000040531158447
v -0.076700955629348755 -0.085766792297363281 -0.0020000040531158447
v -0.076700955629348755 0.085766822099685669 0.0019999982323497534
v -0.076700955629348755 -2.6737524194686557E-08 0.0019999982323497534
v -0.076700955629348755 0.085766822099685669 -0.0020000040531158447
v -0.076700955629348755 -2.6737524194686557E-08 -0.0020000040531158447
v 0.076700948178768158 0.085766822099685669 0.0019999968353658915
v -0.076700955629348755 0.085766822099685669 0.0019999982323497534
v 1.2924282755122363E-09 0.085766822099685669 7.7579209722955511E-10
v 0.076700955629348755 0.085766822099685669 -0.0020000012591481209
v -0.076700955629348755 0.085766822099685669 -0.0020000040531158447
v -0.038350477814674377 0.085766822099685669 -2.4074797710937901E-09
v 1.060314724909972E-09 0.085766822099685669 -0.0010000010952353477
v -0.038350474089384079 0.085766822099685669 -0.00099999725352972746
v -0.057525712996721268 0.085766822099685669 -0.000999999581836164
v -0.038350477814674377 0.085766822099685669 -0.001500000013038516
v -0.057525709271430969 0.085766822099685669 -0.0014999986160546541
v -0.067113332450389862 0.085766822099685669 -0.0014999983832240105
v -0.057525712996721268 0.085766822099685669 -0.0017500001704320312
v -0.067113332450389862 0.085766822099685669 -0.0017499994719401002
v -1.7001787755432929E-09 0.085766822099685669 0.0010000007459893823
v -0.038350477814674377 0.085766822099685669 0.00099999934900552034
v -0.057525709271430969 0.085766822099685669 0.0010000008624047041
v -0.038350474089384079 0.085766822099685669 0.0015000022249296308
v -0.057525712996721268 0.085766822099685669 0.0014999998966231942
v -0.067113332450389862 0.085766822099685669 0.0015000001294538379
v -0.057525712996721268 0.085766822099685669 0.0017499978421255946
v -0.067113332450389862 0.085766822099685669 0.0017500018002465367
v 0.038350474089384079 0.085766822099685669 3.4533877979470162E-09
v 0.038350474089384079 0.085766822099685669 0.0010000052861869335
v 0.057525712996721268 0.085766822099685669 0.0010000005131587386
v 0.038350474089384079 0.085766822099685669 0.0015000019920989871
v 0.057525709271430969 0.085766822099685669 0.0015000045532360673
v 0.067113332450389862 0.085766822099685669 0.0014999989653006196
v 0.057525712996721268 0.085766822099685669 0.0017499998211860657
v 0.067113332450389862 0.085766822099685669 0.0017500009853392839
v 0.038350474089384079 0.085766822099685669 -0.00099999748636037111
v 0.038350470364093781 0.085766822099685669 -0.0014999951235949993
v 0.057525712996721268 0.085766822099685669 -0.0010000020265579224
v 0.057525712996721268 0.085766822099685669 -0.0014999994309619069
v 0.057525712996721268 0.085766822099685669 -0.0017500015674158931
v 0.067113332450389862 0.085766822099685669 -0.0014999986160546541
v 0.067113332450389862 0.085766822099685669 -0.0017500001704320312
v 0.076700948178768158 -0.085766792297363281 0.0019999968353658915
v 0.076700948178768158 0.085766822099685669 0.0019999968353658915
v 0.076700955629348755 -0.085766792297363281 -0.0020000012591481209
v 0.076700955629348755 0.085766822099685669 -0.0020000012591481209
v 0.076700948178768158 -0.055496152490377426 1.5467407354918805E-09
v 0.076700948178768158 -0.075676590204238892 1.5467407354918805E-09
v 0.076700948178768158 -0.045405950397253036 1.5467407354918805E-09
v 0.076700948178768158 -0.035315748304128647 1.5467407354918805E-09
v 0.076700948178768158 -0.025225546211004257 1.5467407354918805E-09
v 0.076700948178768158 -0.015135315246880054 1.5467407354918805E-09
v 0.076700948178768158 -0.0050450828857719898 1.5467407354918805E-09
v 0.076700948178768158 0.0051460000686347485 1.5467407354918805E-09
v 0.076700948178768158 0.015135320834815502 1.5467407354918805E-09
v 0.076700948178768158 0.035315785557031631 1.5467407354918805E-09
v 0.076700948178768158 0.025225494056940079 1.5467407354918805E-09
v 0.076700948178768158 0.045405957847833633 1.5467407354918805E-09
v 0.076700948178768158 0.055496130138635635 1.5467407354918805E-09
v 0.076700948178768158 0.075676590204238892 1.5467407354918805E-09
v 0.076700948178768158 0.065586358308792114 1.5467407354918805E-09
v -0.076700955629348755 -0.085766792297363281 0.0019999982323497534
v 0.076700948178768158 -0.085766792297363281 0.0019999968353658915
v 1.2924282755122363E-09 -0.085766792297363281 7.7579209722955511E-10
v -0.076700955629348755 -0.085766792297363281 -0.0020000040531158447
v 0.076700955629348755 -0.085766792297363281 -0.0020000012591481209
v -0.038350477814674377 -0.085766792297363281 -2.4074797710937901E-09
v -1.7001787755432929E-09 -0.085766792297363281 0.0010000007459893823
v -0.038350477814674377 -0.085766792297363281 0.00099999934900552034
v -0.057525709271430969 -0.085766792297363281 0.0010000008624047041
v -0.038350474089384079 -0.085766792297363281 0.0015000022249296308
v -0.057525712996721268 -0.085766792297363281 0.0014999998966231942
v -0.067113332450389862 -0.085766792297363281 0.0015000001294538379
v -0.057525712996721268 -0.085766792297363281 0.0017499978421255946
v -0.067113332450389862 -0.085766792297363281 0.0017500018002465367
v 1.060314724909972E-09 -0.085766792297363281 -0.0010000010952353477
v -0.038350474089384079 -0.085766792297363281 -0.00099999725352972746
v -0.038350477814674377 -0.085766792297363281 -0.001500000013038516
v -0.057525712996721268 -0.085766792297363281 -0.000999999581836164
v -0.057525709271430969 -0.085766792297363281 -0.0014999986160546541
v -0.057525712996721268 -0.085766792297363281 -0.0017500001704320312
v -0.067113332450389862 -0.085766792297363281 -0.0014999983832240105
v -0.067113332450389862 -0.085766792297363281 -0.0017499994719401002
v 0.038350474089384079 -0.085766792297363281 3.4533877979470162E-09
v 0.038350474089384079 -0.085766792297363281 -0.00099999748636037111
v 0.057525712996721268 -0.085766792297363281 -0.0010000020265579224
v 0.038350470364093781 -0.085766792297363281 -0.0014999951235949993
v 0.057525712996721268 -0.085766792297363281 -0.0014999994309619069
v 0.067113332450389862 -0.085766792297363281 -0.0014999986160546541
v 0.057525712996721268 -0.085766792297363281 -0.0017500015674158931
v 0.067113332450389862 -0.085766792297363281 -0.0017500001704320312
v 0.038350474089384079 -0.085766792297363281 0.0010000052861869335
v 0.057525712996721268 -0.085766792297363281 0.0010000005131587386
v 0.038350474089384079 -0.085766792297363281 0.0015000019920989871
v 0.057525709271430969 -0.085766792297363281 0.0015000045532360673
v 0.067113332450389862 -0.085766792297363281 0.0014999989653006196
v 0.057525712996721268 -0.085766792297363281 0.0017499998211860657
v 0.067113332450389862 -0.085766792297363281 0.0017500009853392839
v 0.076700955629348755 -0.085766792297363281 -0.0020000012591481209
v -0.076700955629348755 -0.085766792297363281 -0.0020000040531158447
v 0.076700955629348755 0.085766822099685669 -0.0020000012591481209
v -0.076700955629348755 0.085766822099685669 -0.0020000040531158447
v -0.076700955629348755 -2.6737524194686557E-08 -0.0020000040531158447
vt 0.03327343612909317 0.51109117269515991
vt 0.03327343612909317 0.99853515625
vt 0.57850515842437744 0.51109117269515991
vt 0.57850515842437744 0.99853515625
vt 0.3058893084526062 0.99853515625
vt 0.022182291373610497 0
vt 0.022182291373610497 0.27334827184677124
vt 0.03180859237909317 0
vt 0.03180859237909317 0.27334827184677124
vt 0.011091145686805248 0
vt 0.011091145686805248 0.27334827184677124
vt 0.020717447623610497 0
vt 0.020717447623610497 0.27334827184677124
vt 0.52218228578567505 0.011091145686805248
vt 0.03327343612909317 0.011091145686805248
vt 0.277727872133255 0.015904296189546585
vt 0.52218228578567505 0.020717447623610497
vt 0.03327343612909317 0.020717447623610497
vt 0.15550065040588379 0.015904296189546585
vt 0.277727872133255 0.018310870975255966
vt 0.15550065040588379 0.018310870975255966
vt 0.094387046992778778 0.018310870975255966
vt 0.15550065040588379 0.019514160230755806
vt 0.094387046992778778 0.019514160230755806
vt 0.063830241560935974 0.019514160230755806
vt 0.094387046992778778 0.020115803927183151
vt 0.063830241560935974 0.020115803927183151
vt 0.277727872133255 0.013497721403837204
vt 0.15550065040588379 0.013497721403837204
vt 0.094387046992778778 0.013497721403837204
vt 0.15550065040588379 0.012294433079659939
vt 0.094387046992778778 0.012294433079659939
vt 0.063830241560935974 0.012294433079659939
vt 0.094387046992778778 0.011692789383232594
vt 0.063830241560935974 0.011692789383232594
vt 0.39995506405830383 0.015904296189546585
vt 0.39995506405830383 0.013497721403837204
vt 0.46106868982315063 0.013497721403837204
vt 0.39995506405830383 0.012294433079659939
vt 0.46106868982315063 0.012294433079659939
vt 0.49162548780441284 0.012294433079659939
vt 0.46106868982315063 0.011692789383232594
vt 0.49162548780441284 0.011692789383232594
vt 0.39995506405830383 0.018310870975255966
vt 0.39995506405830383 0.019514160230755806
vt 0.46106868982315063 0.018310870975255966
vt 0.46106868982315063 0.019514160230755806
vt 0.46106868982315063 0.020115803927183151
vt 0.49162548780441284 0.019514160230755806
vt 0.49162548780441284 0.020115803927183151
vt 0 0
vt 0 0.54669654369354248
vt 0.0096263019368052483 0
vt 0.0096263019368052483 0.54669654369354248
vt 0.0048131509684026241 0.096475869417190552
vt 0.0048131509684026241 0.032158620655536652
vt 0.0048131509684026241 0.12863448262214661
vt 0.0048131509684026241 0.16079311072826385
vt 0.0048131509684026241 0.1929517388343811
vt 0.0048131509684026241 0.22511035203933716
vt 0.0048131509684026241 0.25726896524429321
vt 0.0048131509684026241 0.28974917531013489
vt 0.0048131509684026241 0.32158622145652771
vt 0.0048131509684026241 0.38590347766876221
vt 0.0048131509684026241 0.35374483466148376
vt 0.0048131509684026241 0.41806209087371826
vt 0.0048131509684026241 0.45022070407867432
vt 0.0048131509684026241 0.51453793048858643
vt 0.0048131509684026241 0.48237931728363037
vt 0.52218228578567505 0
vt 0.03327343612909317 0
vt 0.277727872133255 0.0048131509684026241
vt 0.52218228578567505 0.0096263019368052483
vt 0.03327343612909317 0.0096263019368052483
vt 0.39995506405830383 0.0048131509684026241
vt 0.277727872133255 0.0024065754842013121
vt 0.39995506405830383 0.0024065754842013121
vt 0.46106868982315063 0.0024065754842013121
vt 0.39995506405830383 0.001203287742100656
vt 0.46106868982315063 0.001203287742100656
vt 0.49162548780441284 0.001203287742100656
vt 0.46106868982315063 0.00060164387105032802
vt 0.49162548780441284 0.00060164387105032802
vt 0.277727872133255 0.0072197262197732925
vt 0.39995506405830383 0.0072197262197732925
vt 0.39995506405830383 0.0084230136126279831
vt 0.46106868982315063 0.0072197262197732925
vt 0.46106868982315063 0.0084230136126279831
vt 0.46106868982315063 0.009024658240377903
vt 0.49162548780441284 0.0084230136126279831
vt 0.49162548780441284 0.009024658240377903
vt 0.15550065040588379 0.0048131509684026241
vt 0.15550065040588379 0.0072197262197732925
vt 0.094387046992778778 0.0072197262197732925
vt 0.15550065040588379 0.0084230136126279831
vt 0.094387046992778778 0.0084230136126279831
vt 0.063830241560935974 0.0084230136126279831
vt 0.094387046992778778 0.009024658240377903
vt 0.063830241560935974 0.009024658240377903
vt 0.15550065040588379 0.0024065754842013121
vt 0.094387046992778778 0.0024065754842013121
vt 0.15550065040588379 0.001203287742100656
vt 0.094387046992778778 0.001203287742100656
vt 0.063830241560935974 0.001203287742100656
vt 0.094387046992778778 0.00060164387105032802
vt 0.063830241560935974 0.00060164387105032802
vt 0.03327343612909317 0.022182291373610497
vt 0.03327343612909317 0.50962632894515991
vt 0.57850515842437744 0.022182291373610497
vt 0.57850515842437744 0.50962632894515991
vt 0.3058893084526062 0.50962632894515991
vn -3.1965353031182531E-08 0 1
vn -3.1965353031182531E-08 0 1
vn -3.1965353031182531E-08 0 1
vn -3.1965353031182531E-08 0 1
vn -3.1965353031182531E-08 0 1
vn -1 0 -3.1965353031182531E-08
vn -1 0 -3.1965353031182531E-08
vn -1 0 -3.1965353031182531E-08
vn -1 0 -3.1965353031182531E-08
vn -1 0 -3.1965353031182531E-08
vn -1 0 -3.1965353031182531E-08
vn -1 0 -3.1965353031182531E-08
vn -1 0 -3.1965353031182531E-08
vn 0 1 0
vn 0 1 0
vn 0 1 0
vn 0 1 0
vn 0 1 0
vn 0 1 0
vn 0 1 0
vn 0 1 0
vn 0 1 0
vn 0 1 0
vn 0 1 0
vn 0 1 0
vn 0 1 0
vn 0 1 0
vn 0 1 0
vn 0 1 0
vn 0 1 0
vn 0 1 0
vn 0 1 0
vn 0 1 0
vn 0 1 0
vn 0 1 0
vn 0 1 0
vn 0 1 0
vn 0 1 0
vn 0 1 0
vn 0 1 0
vn 0 1 0
vn 0 1 0
vn 0 1 0
vn 0 1 0
vn 0 1 0
vn 0 1 0
vn 0 1 0
vn 0 1 0
vn 0 1 0
vn 0 1 0
vn 1 0 3.1965353031182531E-08
vn 1 0 3.1965353031182531E-08
vn 1 0 3.1965353031182531E-08
vn 1 0 3.1965353031182531E-08
vn 1 0 3.1965353031182531E-08
vn 1 0 3.1965353031182531E-08
vn 1 0 3.1965353031182531E-08
vn 1 0 3.1965353031182531E-08
vn 1 0 3.1965353031182531E-08
vn 1 0 3.1965353031182531E-08
vn 1 0 3.1965353031182531E-08
vn 1 0 3.1965353031182531E-08
vn 1 0 3.1965353031182531E-08
vn 1 0 3.1965353031182531E-08
vn 1 0 3.1965353031182531E-08
vn 1 0 3.1965353031182531E-08
vn 1 0 3.1965353031182531E-08
vn 1 0 3.1965353031182531E-08
vn 1 0 3.1965353031182531E-08
vn 0 -1 0
vn 0 -1 0
vn 0 -1 0
vn 0 -1 0
vn 0 -1 0
vn 0 -1 0
vn 0 -1 0
vn 0 -1 0
vn 0 -1 0
vn 0 -1 0
vn 0 -1 0
vn 0 -1 0
vn 0 -1 0
vn 0 -1 0
vn 0 -1 0
vn 0 -1 0
vn 0 -1 0
vn 0 -1 0
vn 0 -1 0
vn 0 -1 0
vn 0 -1 0
vn 0 -1 0
vn 0 -1 0
vn 0 -1 0
vn 0 -1 0
vn 0 -1 0
vn 0 -1 0
vn 0 -1 0
vn 0 -1 0
vn 0 -1 0
vn 0 -1 0
vn 0 -1 0
vn 0 -1 0
vn 0 -1 0
vn 0 -1 0
vn 0 -1 0
vn 0 -1 0
vn 3.1965353031182531E-08 0 -1
vn 3.1965353031182531E-08 0 -1
vn 3.1965353031182531E-08 0 -1
vn 3.1965353031182531E-08 0 -1
vn 3.1965353031182531E-08 0 -1
f 5/5/5 2/2/2 1/1/1 3/3/3 4/4/4
f 7/7/7 6/6/6 8/8/8 9/9/9
f 11/11/11 10/10/10 12/12/12 13/13/13
f 15/15/15 14/14/14 17/17/17 18/18/18
f 51/51/51 53/53/53 54/54/54 52/52/52
f 71/71/71 70/70/70 73/73/73 74/74/74
f 107/107/107 108/108/108 111/111/111 110/110/110 109/109/109
