# Rhino

v 0.076700948178768158 -0.042243350297212601 0.0019999982323497534
v -0.076700955629348755 -0.042243350297212601 0.0020000108052045107
v 0.076700948178768158 0.042243313044309616 0.0019999982323497534
v -0.076700955629348755 0.042243313044309616 0.0020000108052045107
v -0.076700955629348755 1.1590094217694968E-08 0.0020000108052045107
v -0.076700955629348755 1.1590094217694968E-08 0.0020000108052045107
v -0.076700955629348755 -0.042243350297212601 0.0020000108052045107
v -0.076700955629348755 1.1590094217694968E-08 -0.0019999963697046041
v -0.076700955629348755 -0.042243350297212601 -0.0019999963697046041
v -0.076700955629348755 0.042243313044309616 0.0020000108052045107
v -0.076700955629348755 1.1590094217694968E-08 0.0020000108052045107
v -0.076700955629348755 0.042243313044309616 -0.0019999963697046041
v -0.076700955629348755 1.1590094217694968E-08 -0.0019999963697046041
v 0.076700948178768158 0.042243313044309616 0.0019999982323497534
v -0.076700955629348755 0.042243313044309616 0.0020000108052045107
v 0.076700948178768158 0.042243313044309616 -0.001999999862164259
v -0.076700955629348755 0.042243313044309616 -0.0019999963697046041
v 2.9593427708363151E-10 0.042243313044309616 -0.00099999725352972746
v -0.038350481539964676 0.042243313044309616 -0.001000005635432899
v -1.4532072212247726E-09 0.042243313044309616 -0.001500001410022378
v -0.038350474089384079 0.042243313044309616 -0.0014999987324699759
v -0.057525716722011566 0.042243313044309616 -0.0015000093262642622
v -0.038350474089384079 0.042243313044309616 -0.0017499998211860657
v -0.057525720447301865 0.042243313044309616 -0.0017500105313956738
v -0.067113332450389862 0.042243313044309616 -0.0017500112298876047
v -0.057525716722011566 0.042243313044309616 -0.0018750046147033572
v -0.067113332450389862 0.042243313044309616 -0.0018750053131952882
v 3.0564277775368964E-09 0.042243313044309616 0.0010000044712796807
v -0.038350474089384079 0.042243313044309616 0.00099999422673135996
v -2.6552238185928445E-09 0.042243313044309616 0.0014999957056716084
v -0.038350477814674377 0.042243313044309616 0.0015000002458691597
v -0.057525716722011566 0.042243313044309616 0.001499985926784575
v -0.038350474089384079 0.042243313044309616 0.0017500014510005713
v -0.057525720447301865 0.042243313044309616 0.0017499907407909632
v -0.067113332450389862 0.042243313044309616 0.0017499900422990322
v -0.057525712996721268 0.042243313044309616 0.0018749977461993694
v -0.067113332450389862 0.042243313044309616 0.0018749970477074385
v 0.038350477814674377 0.042243313044309616 0.0010000008624047041
v 0.038350477814674377 0.042243313044309616 0.0015000050188973546
v 0.057525716722011566 0.042243313044309616 0.0015000026905909181
v 0.038350477814674377 0.042243313044309616 0.0017500070389360189
v 0.057525716722011566 0.042243313044309616 0.0017500048270449042
v 0.067113332450389862 0.042243313044309616 0.0017499972600489855
v 0.057525712996721268 0.042243313044309616 0.0018749992595985532
v 0.067113332450389862 0.042243313044309616 0.0018749982118606567
v 0.038350474089384079 0.042243313044309616 -0.0010000017937272787
v 0.038350477814674377 0.042243313044309616 -0.0014999920967966318
v 0.038350477814674377 0.042243313044309616 -0.001749994233250618
v 0.057525716722011566 0.042243313044309616 -0.0014999945415183902
v 0.057525716722011566 0.042243313044309616 -0.0017499964451417327
v 0.057525716722011566 0.042243313044309616 -0.0018749907612800598
v 0.067113332450389862 0.042243313044309616 -0.001749997609294951
v 0.067113339900970459 0.042243313044309616 -0.0018749916926026344
v 0.076700948178768158 -0.042243350297212601 0.0019999982323497534
v 0.076700948178768158 0.042243313044309616 0.0019999982323497534
v 0.076700948178768158 -0.042243350297212601 -0.001999999862164259
v 0.076700948178768158 0.042243313044309616 -0.001999999862164259
v 0.076700955629348755 -0.014081109315156937 1.9043167043264475E-09
v 0.076700955629348755 -0.032855916768312454 1.9043167043264475E-09
v 0.076700955629348755 -0.0046936753205955029 1.9043167043264475E-09
v 0.076700955629348755 0.0046936986036598682 1.9043167043264475E-09
v 0.076700955629348755 0.014081131666898727 1.9043167043264475E-09
v 0.076700955629348755 0.032855939120054245 1.9043167043264475E-09
v 0.076700955629348755 0.023468565195798874 1.9043167043264475E-09
v -0.076700955629348755 -0.042243350297212601 0.0020000108052045107
v 0.076700948178768158 -0.042243350297212601 0.0019999982323497534
v -0.076700955629348755 -0.042243350297212601 -0.0019999963697046041
v 0.076700948178768158 -0.042243350297212601 -0.001999999862164259
v 3.0564277775368964E-09 -0.042243350297212601 0.0010000044712796807
v -0.038350474089384079 -0.042243350297212601 0.00099999422673135996
v -2.6552238185928445E-09 -0.042243350297212601 0.0014999957056716084
v -0.038350477814674377 -0.042243350297212601 0.0015000002458691597
v -0.057525716722011566 -0.042243350297212601 0.001499985926784575
v -0.038350474089384079 -0.042243350297212601 0.0017500014510005713
v -0.057525720447301865 -0.042243350297212601 0.0017499907407909632
v -0.067113332450389862 -0.042243350297212601 0.0017499900422990322
v -0.057525712996721268 -0.042243350297212601 0.0018749977461993694
v -0.067113332450389862 -0.042243350297212601 0.0018749970477074385
v 2.9593427708363151E-10 -0.042243350297212601 -0.00099999725352972746
v -1.4532072212247726E-09 -0.042243350297212601 -0.001500001410022378
v -0.038350481539964676 -0.042243350297212601 -0.001000005635432899
v -0.038350474089384079 -0.042243350297212601 -0.0014999987324699759
v -0.038350474089384079 -0.042243350297212601 -0.0017499998211860657
v -0.057525716722011566 -0.042243350297212601 -0.0015000093262642622
v -0.057525720447301865 -0.042243350297212601 -0.0017500105313956738
v -0.057525716722011566 -0.042243350297212601 -0.0018750046147033572
v -0.067113332450389862 -0.042243350297212601 -0.0017500112298876047
v -0.067113332450389862 -0.042243350297212601 -0.0018750053131952882
v 0.038350474089384079 -0.042243350297212601 -0.0010000017937272787
v 0.038350477814674377 -0.042243350297212601 -0.0014999920967966318
v 0.057525716722011566 -0.042243350297212601 -0.0014999945415183902
v 0.038350477814674377 -0.042243350297212601 -0.001749994233250618
v 0.057525716722011566 -0.042243350297212601 -0.0017499964451417327
v 0.067113332450389862 -0.042243350297212601 -0.001749997609294951
v 0.057525716722011566 -0.042243350297212601 -0.0018749907612800598
v 0.067113339900970459 -0.042243350297212601 -0.0018749916926026344
v 0.038350477814674377 -0.042243350297212601 0.0010000008624047041
v 0.038350477814674377 -0.042243350297212601 0.0015000050188973546
v 0.057525716722011566 -0.042243350297212601 0.0015000026905909181
v 0.038350477814674377 -0.042243350297212601 0.0017500070389360189
v 0.057525716722011566 -0.042243350297212601 0.0017500048270449042
v 0.067113332450389862 -0.042243350297212601 0.0017499972600489855
v 0.057525712996721268 -0.042243350297212601 0.0018749992595985532
v 0.067113332450389862 -0.042243350297212601 0.0018749982118606567
v 0.076700948178768158 -0.042243350297212601 -0.001999999862164259
v -0.076700955629348755 -0.042243350297212601 -0.0019999963697046041
v 0.076700948178768158 0.042243313044309616 -0.001999999862164259
v -0.076700955629348755 0.042243313044309616 -0.0019999963697046041
v -0.076700955629348755 1.1590094217694968E-08 -0.0019999963697046041
vt 0.48021978139877319 0.059340640902519226
vt 0.48021978139877319 0.92980748414993286
vt 0.95897471904754639 0.059340640902519226
vt 0.95897471904754639 0.92980748414993286
vt 0.71959728002548218 0.92980748414993286
vt 0.2401098906993866 0.019780213013291359
vt 0 0.019780213013291359
vt 0.2401098906993866 0.038095582276582718
vt 0 0.038095582276582718
vt 0.2401098906993866 0
vt 0 0
vt 0.2401098906993866 0.018315369263291359
vt 0 0.018315369263291359
vt 0.87193173170089722 0.039560426026582718
vt 0 0.039560426026582718
vt 0.87193173170089722 0.057875797152519226
vt 0 0.057875797152519226
vt 0.43596586585044861 0.053296953439712524
vt 0.2179829329252243 0.053296953439712524
vt 0.43596586585044861 0.055586375296115875
vt 0.2179829329252243 0.055586375296115875
vt 0.10899146646261215 0.055586375296115875
vt 0.2179829329252243 0.056731086224317551
vt 0.10899146646261215 0.056731086224317551
vt 0.054495733231306076 0.056731086224317551
vt 0.10899146646261215 0.057303439825773239
vt 0.054495733231306076 0.057303439825773239
vt 0.43596586585044861 0.04413926973938942
vt 0.2179829329252243 0.04413926973938942
vt 0.43596586585044861 0.041849847882986069
vt 0.2179829329252243 0.041849847882986069
vt 0.10899146646261215 0.041849847882986069
vt 0.2179829329252243 0.040705136954784393
vt 0.10899146646261215 0.040705136954784393
vt 0.054495733231306076 0.040705136954784393
vt 0.10899146646261215 0.040132783353328705
vt 0.054495733231306076 0.040132783353328705
vt 0.65394878387451172 0.04413926973938942
vt 0.65394878387451172 0.041849847882986069
vt 0.76294022798538208 0.041849847882986069
vt 0.65394878387451172 0.040705136954784393
vt 0.76294022798538208 0.040705136954784393
vt 0.81743597984313965 0.040705136954784393
vt 0.76294022798538208 0.040132783353328705
vt 0.81743597984313965 0.040132783353328705
vt 0.65394878387451172 0.053296953439712524
vt 0.65394878387451172 0.055586375296115875
vt 0.65394878387451172 0.056731086224317551
vt 0.76294022798538208 0.055586375296115875
vt 0.76294022798538208 0.056731086224317551
vt 0.76294022798538208 0.057303439825773239
vt 0.81743597984313965 0.056731086224317551
vt 0.81743597984313965 0.057303439825773239
vt 0.96043956279754639 0
vt 0.96043956279754639 0.48021978139877319
vt 0.97875493764877319 0
vt 0.97875493764877319 0.48021978139877319
vt 0.96959728002548218 0.16007326543331146
vt 0.96959728002548218 0.053357753902673721
vt 0.96959728002548218 0.21343101561069489
vt 0.96959728002548218 0.2667887806892395
vt 0.96959728002548218 0.32014653086662292
vt 0.96959728002548218 0.42686203122138977
vt 0.96959728002548218 0.37350428104400635
vt 0.98021978139877319 0
vt 0.98021978139877319 0.87193173170089722
vt 0.99853515625 0
vt 0.99853515625 0.87193173170089722
vt 0.9847986102104187 0.43596586585044861
vt 0.9847986102104187 0.2179829329252243
vt 0.98250919580459595 0.43596586585044861
vt 0.98250919580459595 0.2179829329252243
vt 0.98250919580459595 0.10899146646261215
vt 0.98136448860168457 0.2179829329252243
vt 0.98136448860168457 0.10899146646261215
vt 0.98136448860168457 0.054495733231306076
vt 0.98079216480255127 0.10899146646261215
vt 0.98079216480255127 0.054495733231306076
vt 0.99395632743835449 0.43596586585044861
vt 0.99624574184417725 0.43596586585044861
vt 0.99395632743835449 0.2179829329252243
vt 0.99624574184417725 0.2179829329252243
vt 0.99739044904708862 0.2179829329252243
vt 0.99624574184417725 0.10899146646261215
vt 0.99739044904708862 0.10899146646261215
vt 0.99796277284622192 0.10899146646261215
vt 0.99739044904708862 0.054495733231306076
vt 0.99796277284622192 0.054495733231306076
vt 0.99395632743835449 0.65394878387451172
vt 0.99624574184417725 0.65394878387451172
vt 0.99624574184417725 0.76294022798538208
vt 0.99739044904708862 0.65394878387451172
vt 0.99739044904708862 0.76294022798538208
vt 0.99739044904708862 0.81743597984313965
vt 0.99796277284622192 0.76294022798538208
vt 0.99796277284622192 0.81743597984313965
vt 0.9847986102104187 0.65394878387451172
vt 0.98250919580459595 0.65394878387451172
vt 0.98250919580459595 0.76294022798538208
vt 0.98136448860168457 0.65394878387451172
vt 0.98136448860168457 0.76294022798538208
vt 0.98136448860168457 0.81743597984313965
vt 0.98079216480255127 0.76294022798538208
vt 0.98079216480255127 0.81743597984313965
vt 0 0.059340640902519226
vt 0 0.92980748414993286
vt 0.47875493764877319 0.059340640902519226
vt 0.47875493764877319 0.92980748414993286
vt 0.2393774688243866 0.92980748414993286
vn 3.1965353031182531E-08 0 1
vn 3.1965353031182531E-08 0 1
vn 3.1965353031182531E-08 0 1
vn 3.1965353031182531E-08 0 1
vn 3.1965353031182531E-08 0 1
vn -1 0 3.1965353031182531E-08
vn -1 0 3.1965353031182531E-08
vn -1 0 3.1965353031182531E-08
vn -1 0 3.1965353031182531E-08
vn -1 0 3.1965353031182531E-08
vn -1 0 3.1965353031182531E-08
vn -1 0 3.1965353031182531E-08
vn -1 0 3.1965353031182531E-08
vn 0 1 0
vn 0 1 0
vn 0 1 0
vn 0 1 0
vn 0 1 0
vn 0 1 0
vn 0 1 0
vn 0 1 0
vn 0 1 0
vn 0 1 0
vn 0 1 0
vn 0 1 0
vn 0 1 0
vn 0 1 0
vn 0 1 0
vn 0 1 0
vn 0 1 0
vn 0 1 0
vn 0 1 0
vn 0 1 0
vn 0 1 0
vn 0 1 0
vn 0 1 0
vn 0 1 0
vn 0 1 0
vn 0 1 0
vn 0 1 0
vn 0 1 0
vn 0 1 0
vn 0 1 0
vn 0 1 0
vn 0 1 0
vn 0 1 0
vn 0 1 0
vn 0 1 0
vn 0 1 0
vn 0 1 0
vn 0 1 0
vn 0 1 0
vn 0 1 0
vn 1 0 -3.1965353031182531E-08
vn 1 0 -3.1965353031182531E-08
vn 1 0 -3.1965353031182531E-08
vn 1 0 -3.1965353031182531E-08
vn 1 0 -3.1965353031182531E-08
vn 1 0 -3.1965353031182531E-08
vn 1 0 -3.1965353031182531E-08
vn 1 0 -3.1965353031182531E-08
vn 1 0 -3.1965353031182531E-08
vn 1 0 -3.1965353031182531E-08
vn 1 0 -3.1965353031182531E-08
vn 0 -1 0
vn 0 -1 0
vn 0 -1 0
vn 0 -1 0
vn 0 -1 0
vn 0 -1 0
vn 0 -1 0
vn 0 -1 0
vn 0 -1 0
vn 0 -1 0
vn 0 -1 0
vn 0 -1 0
vn 0 -1 0
vn 0 -1 0
vn 0 -1 0
vn 0 -1 0
vn 0 -1 0
vn 0 -1 0
vn 0 -1 0
vn 0 -1 0
vn 0 -1 0
vn 0 -1 0
vn 0 -1 0
vn 0 -1 0
vn 0 -1 0
vn 0 -1 0
vn 0 -1 0
vn 0 -1 0
vn 0 -1 0
vn 0 -1 0
vn 0 -1 0
vn 0 -1 0
vn 0 -1 0
vn 0 -1 0
vn 0 -1 0
vn 0 -1 0
vn 0 -1 0
vn 0 -1 0
vn 0 -1 0
vn 0 -1 0
vn -3.1965353031182531E-08 0 -1
vn -3.1965353031182531E-08 0 -1
vn -3.1965353031182531E-08 0 -1
vn -3.1965353031182531E-08 0 -1
vn -3.1965353031182531E-08 0 -1
f 5/5/5 2/2/2 1/1/1 3/3/3 4/4/4
f 7/7/7 6/6/6 8/8/8 9/9/9
f 11/11/11 10/10/10 12/12/12 13/13/13
f 17/17/17 15/15/15 14/14/14 16/16/16
f 54/54/54 56/56/56 57/57/57 55/55/55
f 68/68/68 66/66/66 65/65/65 67/67/67
f 105/105/105 106/106/106 109/109/109 108/108/108 107/107/107
