# Rhino

v 0.076700948178768158 -0.085766799747943878 0.0019999963697046041
v -0.076700948178768158 -0.085766799747943878 0.0019999940413981676
v 0.076700948178768158 0.085766784846782684 0.0019999963697046041
v -0.076700948178768158 0.085766784846782684 0.0019999940413981676
v -0.076700948178768158 -3.9385228411958906E-09 0.0019999940413981676
v -0.076700948178768158 -3.9385228411958906E-09 0.0019999940413981676
v -0.076700948178768158 -0.085766799747943878 0.0019999940413981676
v -0.076700940728187561 -3.9385228411958906E-09 -0.0020000066142529249
v -0.076700940728187561 -0.085766799747943878 -0.0020000066142529249
v -0.076700948178768158 0.085766784846782684 0.0019999940413981676
v -0.076700948178768158 -3.9385228411958906E-09 0.0019999940413981676
v -0.076700940728187561 0.085766784846782684 -0.0020000066142529249
v -0.076700940728187561 -3.9385228411958906E-09 -0.0020000066142529249
v 0.076700948178768158 0.085766784846782684 0.0019999963697046041
v -0.076700948178768158 0.085766784846782684 0.0019999940413981676
v 0.076700948178768158 0.085766784846782684 -0.0020000110380351543
v -0.076700940728187561 0.085766784846782684 -0.0020000066142529249
v 0.076700948178768158 -0.085766799747943878 0.0019999963697046041
v 0.076700948178768158 0.085766784846782684 0.0019999963697046041
v 0.076700948178768158 -0.066707529127597809 -7.3536083888825488E-09
v 0.076700948178768158 0.066707484424114227 -7.3536083888825488E-09
v 0.076700948178768158 -0.085766799747943878 -0.0020000110380351543
v 0.076700948178768158 0.085766784846782684 -0.0020000110380351543
v 0.076700948178768158 0.076237134635448456 -7.3536083888825488E-09
v 0.076700955629348755 0.066707484424114227 -0.0010000064503401518
v 0.076700955629348755 0.076237134635448456 -0.0010000064503401518
v 0.076700955629348755 0.066707484424114227 0.00099999713711440563
v 0.076700955629348755 0.076237134635448456 0.00099999713711440563
v 0.076700948178768158 -0.07623714953660965 -7.3536083888825488E-09
v 0.076700955629348755 -0.066707529127597809 0.00099999713711440563
v 0.076700955629348755 -0.07623714953660965 0.00099999713711440563
v 0.076700955629348755 -0.066707529127597809 -0.0010000064503401518
v 0.076700955629348755 -0.07623714953660965 -0.0010000064503401518
v 0.076700948178768158 -0.028588894754648209 -7.3536083888825488E-09
v 0.076700948178768158 -0.009529653936624527 -7.3536083888825488E-09
v 0.076700948178768158 0.0095296464860439301 -7.3536083888825488E-09
v 0.076700948178768158 0.028588887304067612 -7.3536083888825488E-09
v 0.076700948178768158 0.047648247331380844 -7.3536083888825488E-09
v -0.076700948178768158 -0.085766799747943878 0.0019999940413981676
v 0.076700948178768158 -0.085766799747943878 0.0019999963697046041
v -0.076700940728187561 -0.085766799747943878 -0.0020000066142529249
v 0.076700948178768158 -0.085766799747943878 -0.0020000110380351543
v 0.076700948178768158 -0.085766799747943878 -0.0020000110380351543
v -0.076700940728187561 -0.085766799747943878 -0.0020000066142529249
v 0.076700948178768158 0.085766784846782684 -0.0020000110380351543
v -0.076700940728187561 0.085766784846782684 -0.0020000066142529249
v -0.076700940728187561 -3.9385228411958906E-09 -0.0020000066142529249
vt 0.03327343612909317 0.51109117269515991
vt 0.03327343612909317 0.99853515625
vt 0.57850515842437744 0.51109117269515991
vt 0.57850515842437744 0.99853515625
vt 0.3058893084526062 0.99853515625
vt 0.022182291373610497 0
vt 0.022182291373610497 0.27334827184677124
vt 0.03180859237909317 0
vt 0.03180859237909317 0.27334827184677124
vt 0.011091145686805248 0
vt 0.011091145686805248 0.27334827184677124
vt 0.020717447623610497 0
vt 0.020717447623610497 0.27334827184677124
vt 0.52218228578567505 0.011091145686805248
vt 0.03327343612909317 0.011091145686805248
vt 0.52218228578567505 0.020717447623610497
vt 0.03327343612909317 0.020717447623610497
vt 0 0
vt 0 0.54669654369354248
vt 0.0048131509684026241 0.060744062066078186
vt 0.0048131509684026241 0.48595249652862549
vt 0.0096263019368052483 0
vt 0.0096263019368052483 0.54669654369354248
vt 0.0048131509684026241 0.51632452011108398
vt 0.0072197262197732925 0.48595249652862549
vt 0.0072197262197732925 0.51632452011108398
vt 0.0024065754842013121 0.48595249652862549
vt 0.0024065754842013121 0.51632452011108398
vt 0.0048131509684026241 0.030372031033039093
vt 0.0024065754842013121 0.060744062066078186
vt 0.0024065754842013121 0.030372031033039093
vt 0.0072197262197732925 0.060744062066078186
vt 0.0072197262197732925 0.030372031033039093
vt 0.0048131509684026241 0.18223218619823456
vt 0.0048131509684026241 0.24297624826431274
vt 0.0048131509684026241 0.30372032523155212
vt 0.0048131509684026241 0.36446437239646912
vt 0.0048131509684026241 0.4252084493637085
vt 0.52218228578567505 0
vt 0.03327343612909317 0
vt 0.52218228578567505 0.0096263019368052483
vt 0.03327343612909317 0.0096263019368052483
vt 0.03327343612909317 0.022182291373610497
vt 0.03327343612909317 0.50962632894515991
vt 0.57850515842437744 0.022182291373610497
vt 0.57850515842437744 0.50962632894515991
vt 0.3058893084526062 0.50962632894515991
vn 3.1965353031182531E-08 0 1
vn 3.1965353031182531E-08 0 1
vn 3.1965353031182531E-08 0 1
vn 3.1965353031182531E-08 0 1
vn 3.1965353031182531E-08 0 1
vn -1 0 3.1965353031182531E-08
vn -1 0 3.1965353031182531E-08
vn -1 0 3.1965353031182531E-08
vn -1 0 3.1965353031182531E-08
vn -1 0 3.1965353031182531E-08
vn -1 0 3.1965353031182531E-08
vn -1 0 3.1965353031182531E-08
vn -1 0 3.1965353031182531E-08
vn 0 1 0
vn 0 1 0
vn 0 1 0
vn 0 1 0
vn 1 0 -3.1965353031182531E-08
vn 1 0 -3.1965353031182531E-08
vn 1 0 -3.1965353031182531E-08
vn 1 0 -3.1965353031182531E-08
vn 1 0 -3.1965353031182531E-08
vn 1 0 -3.1965353031182531E-08
vn 1 0 -3.1965353031182531E-08
vn 1 0 -3.1965353031182531E-08
vn 1 0 -3.1965353031182531E-08
vn 1 0 -3.1965353031182531E-08
vn 1 0 -3.1965353031182531E-08
vn 1 0 -3.1965353031182531E-08
vn 1 0 -3.1965353031182531E-08
vn 1 0 -3.1965353031182531E-08
vn 1 0 -3.1965353031182531E-08
vn 1 0 -3.1965353031182531E-08
vn 1 0 -3.1965353031182531E-08
vn 1 0 -3.1965353031182531E-08
vn 1 0 -3.1965353031182531E-08
vn 1 0 -3.1965353031182531E-08
vn 1 0 -3.1965353031182531E-08
vn 0 -1 0
vn 0 -1 0
vn 0 -1 0
vn 0 -1 0
vn -3.1965353031182531E-08 0 -1
vn -3.1965353031182531E-08 0 -1
vn -3.1965353031182531E-08 0 -1
vn -3.1965353031182531E-08 0 -1
vn -3.1965353031182531E-08 0 -1
f 5/5/5 2/2/2 1/1/1 3/3/3 4/4/4
f 7/7/7 6/6/6 8/8/8 9/9/9
f 11/11/11 10/10/10 12/12/12 13/13/13
f 15/15/15 14/14/14 16/16/16 17/17/17
f 19/19/19 18/18/18 22/22/22 23/23/23
f 40/40/40 39/39/39 41/41/41 42/42/42
f 43/43/43 44/44/44 47/47/47 46/46/46 45/45/45
