# Rhino

v 0.076700940728187561 -0.042243346571922302 0.0019999893847852945
v -0.076700940728187561 -0.042243346571922302 0.0020000021904706955
v 0.076700940728187561 0.042243316769599915 0.0019999893847852945
v -0.076700940728187561 0.042243316769599915 0.0020000021904706955
v -0.076700940728187561 1.4539301318450271E-08 0.0020000021904706955
v -0.076700940728187561 1.4539301318450271E-08 0.0020000021904706955
v -0.076700940728187561 -0.042243346571922302 0.0020000021904706955
v -0.076700948178768158 1.4539301318450271E-08 -0.0019999986980110407
v -0.076700948178768158 -0.042243346571922302 -0.0019999986980110407
v -0.076700940728187561 0.042243316769599915 0.0020000021904706955
v -0.076700940728187561 1.4539301318450271E-08 0.0020000021904706955
v -0.076700948178768158 0.042243316769599915 -0.0019999986980110407
v -0.076700948178768158 1.4539301318450271E-08 -0.0019999986980110407
v 0.076700940728187561 0.042243316769599915 0.0019999893847852945
v -0.076700940728187561 0.042243316769599915 0.0020000021904706955
v 0.076700933277606964 0.042243316769599915 -0.0020000115036964417
v -0.076700948178768158 0.042243316769599915 -0.0019999986980110407
v -0.038350492715835571 0.042243316769599915 -1.1804808686122215E-08
v -0.057525701820850372 0.042243316769599915 7.8004980252899259E-09
v -0.038350488990545273 0.042243316769599915 -0.0010000066831707954
v -0.057525720447301865 0.042243316769599915 -0.0010000051697716117
v -0.067113339900970459 0.042243316769599915 -0.0010000044712796807
v -0.057525716722011566 0.042243316769599915 -0.0015000042039901018
v -0.067113332450389862 0.042243316769599915 -0.0015000002458691597
v -0.038350474089384079 0.042243316769599915 0.0010000012116506696
v -0.057525705546140671 0.042243316769599915 0.0010000026086345315
v -0.067113324999809265 0.042243316769599915 0.0010000065667554736
v -0.057525709271430969 0.042243316769599915 0.0015000017592683434
v -0.067113324999809265 0.042243316769599915 0.0015000056009739637
v 0.038350481539964676 0.042243316769599915 8.9776452938394868E-09
v 0.057525716722011566 0.042243316769599915 1.0692047247573555E-09
v 0.038350474089384079 0.042243316769599915 0.0010000070324167609
v 0.057525709271430969 0.042243316769599915 0.00099999911617487669
v 0.067113324999809265 0.042243316769599915 0.00099999841768294573
v 0.057525705546140671 0.042243316769599915 0.001500001410022378
v 0.067113324999809265 0.042243316769599915 0.0014999941922724247
v 0.038350488990545273 0.042243316769599915 -0.00099998910445719957
v 0.057525724172592163 0.042243316769599915 -0.00099999702069908381
v 0.057525698095560074 0.042243316769599915 -0.0015000076964497566
v 0.067113339900970459 0.042243316769599915 -0.00099999771919101477
v 0.067113310098648071 0.042243316769599915 -0.0015000085113570094
v 0.076700940728187561 -0.042243346571922302 0.0019999893847852945
v 0.076700940728187561 0.042243316769599915 0.0019999893847852945
v 0.076700933277606964 -0.042243346571922302 -0.0020000115036964417
v 0.076700933277606964 0.042243316769599915 -0.0020000115036964417
v 0.076700948178768158 -0.010560855269432068 -3.8979486305379396E-10
v 0.076700948178768158 -0.031682536005973816 -3.8979486305379396E-10
v 0.076700948178768158 1.4539301318450271E-08 -3.8979486305379396E-10
v 0.076700948178768158 0.010560885071754456 -3.8979486305379396E-10
v 0.076700948178768158 0.031682506203651428 -3.8979486305379396E-10
v 0.076700948178768158 0.021121636033058167 -3.8979486305379396E-10
v -0.076700940728187561 -0.042243346571922302 0.0020000021904706955
v 0.076700940728187561 -0.042243346571922302 0.0019999893847852945
v -0.076700948178768158 -0.042243346571922302 -0.0019999986980110407
v 0.076700933277606964 -0.042243346571922302 -0.0020000115036964417
v -0.038350492715835571 -0.042243346571922302 -1.1804808686122215E-08
v -0.057525701820850372 -0.042243346571922302 7.8004980252899259E-09
v -0.038350474089384079 -0.042243346571922302 0.0010000012116506696
v -0.057525705546140671 -0.042243346571922302 0.0010000026086345315
v -0.067113324999809265 -0.042243346571922302 0.0010000065667554736
v -0.057525709271430969 -0.042243346571922302 0.0015000017592683434
v -0.067113324999809265 -0.042243346571922302 0.0015000056009739637
v -0.038350488990545273 -0.042243346571922302 -0.0010000066831707954
v -0.057525720447301865 -0.042243346571922302 -0.0010000051697716117
v -0.057525716722011566 -0.042243346571922302 -0.0015000042039901018
v -0.067113339900970459 -0.042243346571922302 -0.0010000044712796807
v -0.067113332450389862 -0.042243346571922302 -0.0015000002458691597
v 0.038350481539964676 -0.042243346571922302 8.9776452938394868E-09
v 0.057525716722011566 -0.042243346571922302 1.0692047247573555E-09
v 0.038350488990545273 -0.042243346571922302 -0.00099998910445719957
v 0.057525724172592163 -0.042243346571922302 -0.00099999702069908381
v 0.067113339900970459 -0.042243346571922302 -0.00099999771919101477
v 0.057525698095560074 -0.042243346571922302 -0.0015000076964497566
v 0.067113310098648071 -0.042243346571922302 -0.0015000085113570094
v 0.038350474089384079 -0.042243346571922302 0.0010000070324167609
v 0.057525709271430969 -0.042243346571922302 0.00099999911617487669
v 0.067113324999809265 -0.042243346571922302 0.00099999841768294573
v 0.057525705546140671 -0.042243346571922302 0.001500001410022378
v 0.067113324999809265 -0.042243346571922302 0.0014999941922724247
v 0.076700933277606964 -0.042243346571922302 -0.0020000115036964417
v -0.076700948178768158 -0.042243346571922302 -0.0019999986980110407
v 0.076700933277606964 0.042243316769599915 -0.0020000115036964417
v -0.076700948178768158 0.042243316769599915 -0.0019999986980110407
v -0.076700948178768158 1.4539301318450271E-08 -0.0019999986980110407
vt 0.48021978139877319 0.059340640902519226
vt 0.48021978139877319 0.92980748414993286
vt 0.95897471904754639 0.059340640902519226
vt 0.95897471904754639 0.92980748414993286
vt 0.71959728002548218 0.92980748414993286
vt 0.2401098906993866 0
vt 0 0
vt 0.2401098906993866 0.018315369263291359
vt 0 0.018315369263291359
vt 0.2401098906993866 0.019780213013291359
vt 0 0.019780213013291359
vt 0.2401098906993866 0.038095582276582718
vt 0 0.038095582276582718
vt 0.87193173170089722 0.039560426026582718
vt 0 0.039560426026582718
vt 0.87193173170089722 0.057875797152519226
vt 0 0.057875797152519226
vt 0.2179829329252243 0.048718113452196121
vt 0.10899146646261215 0.048718113452196121
vt 0.2179829329252243 0.053296953439712524
vt 0.10899146646261215 0.053296953439712524
vt 0.054495733231306076 0.053296953439712524
vt 0.10899146646261215 0.055586375296115875
vt 0.054495733231306076 0.055586375296115875
vt 0.2179829329252243 0.04413926973938942
vt 0.10899146646261215 0.04413926973938942
vt 0.054495733231306076 0.04413926973938942
vt 0.10899146646261215 0.041849847882986069
vt 0.054495733231306076 0.041849847882986069
vt 0.65394878387451172 0.048718113452196121
vt 0.76294022798538208 0.048718113452196121
vt 0.65394878387451172 0.04413926973938942
vt 0.76294022798538208 0.04413926973938942
vt 0.81743597984313965 0.04413926973938942
vt 0.76294022798538208 0.041849847882986069
vt 0.81743597984313965 0.041849847882986069
vt 0.65394878387451172 0.053296953439712524
vt 0.76294022798538208 0.053296953439712524
vt 0.76294022798538208 0.055586375296115875
vt 0.81743597984313965 0.053296953439712524
vt 0.81743597984313965 0.055586375296115875
vt 0.96043956279754639 0
vt 0.96043956279754639 0.48021978139877319
vt 0.97875493764877319 0
vt 0.97875493764877319 0.48021978139877319
vt 0.96959728002548218 0.18008242547512054
vt 0.96959728002548218 0.060027472674846649
vt 0.96959728002548218 0.2401098906993866
vt 0.96959728002548218 0.30013737082481384
vt 0.96959728002548218 0.42019230127334595
vt 0.96959728002548218 0.36016485095024109
vt 0.98021978139877319 0
vt 0.98021978139877319 0.87193173170089722
vt 0.99853515625 0
vt 0.99853515625 0.87193173170089722
vt 0.98937749862670898 0.2179829329252243
vt 0.98937749862670898 0.10899146646261215
vt 0.9847986102104187 0.2179829329252243
vt 0.9847986102104187 0.10899146646261215
vt 0.9847986102104187 0.054495733231306076
vt 0.98250919580459595 0.10899146646261215
vt 0.98250919580459595 0.054495733231306076
vt 0.99395632743835449 0.2179829329252243
vt 0.99395632743835449 0.10899146646261215
vt 0.99624574184417725 0.10899146646261215
vt 0.99395632743835449 0.054495733231306076
vt 0.99624574184417725 0.054495733231306076
vt 0.98937749862670898 0.65394878387451172
vt 0.98937749862670898 0.76294022798538208
vt 0.99395632743835449 0.65394878387451172
vt 0.99395632743835449 0.76294022798538208
vt 0.99395632743835449 0.81743597984313965
vt 0.99624574184417725 0.76294022798538208
vt 0.99624574184417725 0.81743597984313965
vt 0.9847986102104187 0.65394878387451172
vt 0.9847986102104187 0.76294022798538208
vt 0.9847986102104187 0.81743597984313965
vt 0.98250919580459595 0.76294022798538208
vt 0.98250919580459595 0.81743597984313965
vt 0 0.059340640902519226
vt 0 0.92980748414993286
vt 0.47875493764877319 0.059340640902519226
vt 0.47875493764877319 0.92980748414993286
vt 0.2393774688243866 0.92980748414993286
vn -3.1965353031182531E-08 0 1
vn -3.1965353031182531E-08 0 1
vn -3.1965353031182531E-08 0 1
vn -3.1965353031182531E-08 0 1
vn -3.1965353031182531E-08 0 1
vn -1 0 -3.1965353031182531E-08
vn -1 0 -3.1965353031182531E-08
vn -1 0 -3.1965353031182531E-08
vn -1 0 -3.1965353031182531E-08
vn -1 0 -3.1965353031182531E-08
vn -1 0 -3.1965353031182531E-08
vn -1 0 -3.1965353031182531E-08
vn -1 0 -3.1965353031182531E-08
vn 0 1 0
vn 0 1 0
vn 0 1 0
vn 0 1 0
vn 0 1 0
vn 0 1 0
vn 0 1 0
vn 0 1 0
vn 0 1 0
vn 0 1 0
vn 0 1 0
vn 0 1 0
vn 0 1 0
vn 0 1 0
vn 0 1 0
vn 0 1 0
vn 0 1 0
vn 0 1 0
vn 0 1 0
vn 0 1 0
vn 0 1 0
vn 0 1 0
vn 0 1 0
vn 0 1 0
vn 0 1 0
vn 0 1 0
vn 0 1 0
vn 0 1 0
vn 1 0 3.1965353031182531E-08
vn 1 0 3.1965353031182531E-08
vn 1 0 3.1965353031182531E-08
vn 1 0 3.1965353031182531E-08
vn 1 0 3.1965353031182531E-08
vn 1 0 3.1965353031182531E-08
vn 1 0 3.1965353031182531E-08
vn 1 0 3.1965353031182531E-08
vn 1 0 3.1965353031182531E-08
vn 1 0 3.1965353031182531E-08
vn 0 -1 0
vn 0 -1 0
vn 0 -1 0
vn 0 -1 0
vn 0 -1 0
vn 0 -1 0
vn 0 -1 0
vn 0 -1 0
vn 0 -1 0
vn 0 -1 0
vn 0 -1 0
vn 0 -1 0
vn 0 -1 0
vn 0 -1 0
vn 0 -1 0
vn 0 -1 0
vn 0 -1 0
vn 0 -1 0
vn 0 -1 0
vn 0 -1 0
vn 0 -1 0
vn 0 -1 0
vn 0 -1 0
vn 0 -1 0
vn 0 -1 0
vn 0 -1 0
vn 0 -1 0
vn 0 -1 0
vn 3.1965353031182531E-08 0 -1
vn 3.1965353031182531E-08 0 -1
vn 3.1965353031182531E-08 0 -1
vn 3.1965353031182531E-08 0 -1
vn 3.1965353031182531E-08 0 -1
f 5/5/5 2/2/2 1/1/1 3/3/3 4/4/4
f 7/7/7 6/6/6 8/8/8 9/9/9
f 11/11/11 10/10/10 12/12/12 13/13/13
f 15/15/15 14/14/14 16/16/16 17/17/17
f 42/42/42 44/44/44 45/45/45 43/43/43
f 53/53/53 52/52/52 54/54/54 55/55/55
f 80/80/80 81/81/81 84/84/84 83/83/83 82/82/82
