# Rhino

v -0.042243357747793198 -0.07680608332157135 0.0020000073127448559
v -0.042243357747793198 0.076806090772151947 0.0020000073127448559
v 0.042243335396051407 -0.07680608332157135 0.0020000073127448559
v 0.042243335396051407 0.076806090772151947 0.0020000073127448559
v -2.5398968261924892E-08 0.076806090772151947 0.0020000073127448559
v -2.5398968261924892E-08 0.076806090772151947 0.0020000073127448559
v -0.042243357747793198 0.076806090772151947 0.0020000073127448559
v -2.5398968261924892E-08 0.076806090772151947 -0.0020000007934868336
v -0.042243357747793198 0.076806090772151947 -0.0020000007934868336
v 0.042243335396051407 0.076806090772151947 0.0020000073127448559
v -2.5398968261924892E-08 0.076806090772151947 0.0020000073127448559
v 0.042243335396051407 0.076806090772151947 -0.0020000007934868336
v -2.5398968261924892E-08 0.076806090772151947 -0.0020000007934868336
v 0.042243335396051407 -0.07680608332157135 0.0020000073127448559
v 0.042243335396051407 0.076806090772151947 0.0020000073127448559
v 0.042243335396051407 -0.07680608332157135 -0.0020000007934868336
v 0.042243335396051407 0.076806090772151947 -0.0020000007934868336
v -0.042243357747793198 -0.07680608332157135 0.0020000073127448559
v 0.042243335396051407 -0.07680608332157135 0.0020000073127448559
v -0.042243357747793198 -0.07680608332157135 -0.0020000007934868336
v 0.042243335396051407 -0.07680608332157135 -0.0020000007934868336
v -0.010560835711658001 -0.07680608332157135 3.1850408976907829E-09
v -0.031682517379522324 -0.07680608332157135 3.1850408976907829E-09
v -2.5398968261924892E-08 -0.07680608332157135 3.1850408976907829E-09
v 0.010560845024883747 -0.07680608332157135 3.1850408976907829E-09
v 0.031682524830102921 -0.07680608332157135 3.1850408976907829E-09
v 0.021121654659509659 -0.07680608332157135 3.1850408976907829E-09
v -0.042243357747793198 0.076806090772151947 0.0020000073127448559
v -0.042243357747793198 -0.07680608332157135 0.0020000073127448559
v -0.042243357747793198 0.076806090772151947 -0.0020000007934868336
v -0.042243357747793198 -0.07680608332157135 -0.0020000007934868336
v -0.042243357747793198 -0.07680608332157135 -0.0020000007934868336
v -0.042243357747793198 0.076806090772151947 -0.0020000007934868336
v 0.042243335396051407 -0.07680608332157135 -0.0020000007934868336
v 0.042243335396051407 0.076806090772151947 -0.0020000007934868336
v -2.5398968261924892E-08 0.076806090772151947 -0.0020000007934868336
vt 0.48021978139877319 0.059340640902519226
vt 0.48021978139877319 0.93100267648696899
vt 0.95897471904754639 0.059340640902519226
vt 0.95897471904754639 0.93100267648696899
vt 0.71959728002548218 0.93100267648696899
vt 0.2401098906993866 0.019780213013291359
vt 0 0.019780213013291359
vt 0.2401098906993866 0.038095582276582718
vt 0 0.038095582276582718
vt 0.2401098906993866 0
vt 0 0
vt 0.2401098906993866 0.018315369263291359
vt 0 0.018315369263291359
vt 0.87312686443328857 0.039560426026582718
vt 0 0.039560426026582718
vt 0.87312686443328857 0.057875797152519226
vt 0 0.057875797152519226
vt 0.96043956279754639 0
vt 0.96043956279754639 0.48021978139877319
vt 0.97875493764877319 0
vt 0.97875493764877319 0.48021978139877319
vt 0.96959728002548218 0.18008242547512054
vt 0.96959728002548218 0.060027472674846649
vt 0.96959728002548218 0.2401098906993866
vt 0.96959728002548218 0.30013737082481384
vt 0.96959728002548218 0.42019230127334595
vt 0.96959728002548218 0.36016485095024109
vt 0.98021978139877319 0
vt 0.98021978139877319 0.87312686443328857
vt 0.99853515625 0
vt 0.99853515625 0.87312686443328857
vt 0 0.059340640902519226
vt 0 0.93100267648696899
vt 0.47875493764877319 0.059340640902519226
vt 0.47875493764877319 0.93100267648696899
vt 0.2393774688243866 0.93100267648696899
vn 0 0 1
vn 0 0 1
vn 0 0 1
vn 0 0 1
vn 0 0 1
vn 0 1 0
vn 0 1 0
vn 0 1 0
vn 0 1 0
vn 0 1 0
vn 0 1 0
vn 0 1 0
vn 0 1 0
vn 1 0 0
vn 1 0 0
vn 1 0 0
vn 1 0 0
vn 0 -1 0
vn 0 -1 0
vn 0 -1 0
vn 0 -1 0
vn 0 -1 0
vn 0 -1 0
vn 0 -1 0
vn 0 -1 0
vn 0 -1 0
vn 0 -1 0
vn -1 0 0
vn -1 0 0
vn -1 0 0
vn -1 0 0
vn 0 0 -1
vn 0 0 -1
vn 0 0 -1
vn 0 0 -1
vn 0 0 -1
f 5/5/5 2/2/2 1/1/1 3/3/3 4/4/4
f 7/7/7 6/6/6 8/8/8 9/9/9
f 11/11/11 10/10/10 12/12/12 13/13/13
f 15/15/15 14/14/14 16/16/16 17/17/17
f 18/18/18 20/20/20 21/21/21 19/19/19
f 29/29/29 28/28/28 30/30/30 31/31/31
f 32/32/32 33/33/33 36/36/36 35/35/35 34/34/34
