# Rhino

v 0.24311405420303345 -0.84701132774353027 -0.19841371476650238
v 0.24311405420303345 -0.84701132774353027 -0.050519529730081558
v 0.98147791624069214 -0.84701132774353027 -0.19841371476650238
v 0.98147791624069214 -0.84701132774353027 -0.050519529730081558
v 0.98147791624069214 -0.84701132774353027 -0.19841371476650238
v 0.98147791624069214 -0.84701132774353027 -0.050519529730081558
v 0.98147791624069214 1.0129647254943848 -0.19841371476650238
v 0.98147791624069214 1.0129647254943848 -0.050519529730081558
v 0.98147791624069214 1.0129647254943848 -0.19841371476650238
v 0.98147791624069214 1.0129647254943848 -0.050519529730081558
v 0.24311405420303345 1.0129647254943848 -0.19841371476650238
v 0.24311405420303345 1.0129647254943848 -0.050519529730081558
v 0.24311405420303345 1.0129647254943848 -0.19841371476650238
v 0.24311405420303345 1.0129647254943848 -0.050519529730081558
v 0.24311405420303345 -0.84701132774353027 -0.19841371476650238
v 0.24311405420303345 -0.84701132774353027 -0.050519529730081558
v 0.24311405420303345 -0.84701132774353027 -0.19841371476650238
v 0.24311405420303345 1.0129647254943848 -0.19841371476650238
v 0.98147791624069214 -0.84701132774353027 -0.19841371476650238
v 0.98147791624069214 1.0129647254943848 -0.19841371476650238
v 0.24311405420303345 -0.84701132774353027 -0.050519529730081558
v 0.24311405420303345 1.0129647254943848 -0.050519529730081558
v 0.98147791624069214 -0.84701132774353027 -0.050519529730081558
v 0.98147791624069214 1.0129647254943848 -0.050519529730081558
vt 0.14154522120952606 0
vt 0.071505032479763031 0
vt 0.14154522120952606 0.35698992013931274
vt 0.071505032479763031 0.35698992013931274
vt 0.28455528616905212 0
vt 0.21451510488986969 0
vt 0.28455528616905212 0.89781087636947632
vt 0.21451510488986969 0.89781087636947632
vt 0.070040188729763031 0
vt 0 0
vt 0.070040188729763031 0.35698992013931274
vt 0 0.35698992013931274
vt 0.21305026113986969 0
vt 0.14301006495952606 0
vt 0.21305026113986969 0.89781087636947632
vt 0.14301006495952606 0.89781087636947632
vt 0.64301007986068726 0
vt 0.64301007986068726 0.89781087636947632
vt 0.99853515625 0
vt 0.99853515625 0.89781087636947632
vt 0.28602012991905212 0
vt 0.28602012991905212 0.89781087636947632
vt 0.64154523611068726 0
vt 0.64154523611068726 0.89781087636947632
vn 0 -1 0
vn 0 -1 0
vn 0 -1 0
vn 0 -1 0
vn 1 0 0
vn 1 0 0
vn 1 0 0
vn 1 0 0
vn 0 1 0
vn 0 1 0
vn 0 1 0
vn 0 1 0
vn -1 0 0
vn -1 0 0
vn -1 0 0
vn -1 0 0
vn 0 0 -1
vn 0 0 -1
vn 0 0 -1
vn 0 0 -1
vn 0 0 1
vn 0 0 1
vn 0 0 1
vn 0 0 1
f 2/2/2 1/1/1 3/3/3 4/4/4
f 6/6/6 5/5/5 7/7/7 8/8/8
f 10/10/10 9/9/9 11/11/11 12/12/12
f 14/14/14 13/13/13 15/15/15 16/16/16
f 18/18/18 20/20/20 19/19/19 17/17/17
f 22/22/22 21/21/21 23/23/23 24/24/24
