# Rhino

v 0.85590660572052002 -0.42481797933578491 0.02163366787135601
v 0.85590660572052002 -0.42481797933578491 0.30624660849571228
v 0.85590660572052002 0.40977424383163452 0.02163366787135601
v 0.85590660572052002 0.40977424383163452 0.30624660849571228
v 0.85590660572052002 0.40977424383163452 0.02163366787135601
v 0.85590660572052002 0.40977424383163452 0.30624660849571228
v 0.53389394283294678 0.40977424383163452 0.02163366787135601
v 0.53389394283294678 0.40977424383163452 0.30624660849571228
v 0.53389394283294678 0.40977424383163452 0.02163366787135601
v 0.53389394283294678 0.40977424383163452 0.30624660849571228
v 0.53389394283294678 -0.42481797933578491 0.02163366787135601
v 0.53389394283294678 -0.42481797933578491 0.30624660849571228
v 0.53389394283294678 -0.42481797933578491 0.02163366787135601
v 0.53389394283294678 -0.42481797933578491 0.30624660849571228
v 0.85590660572052002 -0.42481797933578491 0.02163366787135601
v 0.85590660572052002 -0.42481797933578491 0.30624660849571228
v 0.85590660572052002 -0.42481797933578491 0.02163366787135601
v 0.53389394283294678 -0.42481797933578491 0.02163366787135601
v 0.85590660572052002 0.40977424383163452 0.02163366787135601
v 0.53389394283294678 0.40977424383163452 0.02163366787135601
v 0.85590660572052002 -0.42481797933578491 0.30624660849571228
v 0.53389394283294678 -0.42481797933578491 0.30624660849571228
v 0.85590660572052002 0.40977424383163452 0.30624660849571228
v 0.53389394283294678 0.40977424383163452 0.30624660849571228
vt 0.46770915389060974 0.26541298627853394
vt 0.23458699882030487 0.26541298627853394
vt 0.46770915389060974 0.95184546709060669
vt 0.23458699882030487 0.95184546709060669
vt 0.46770915389060974 0
vt 0.23458699882030487 0
vt 0.46770915389060974 0.26394814252853394
vt 0.23458699882030487 0.26394814252853394
vt 0.23312215507030487 0.26541298627853394
vt 0 0.26541298627853394
vt 0.23312215507030487 0.95184546709060669
vt 0 0.95184546709060669
vt 0.23312215507030487 0
vt 0 0
vt 0.23312215507030487 0.26394814252853394
vt 0 0.26394814252853394
vt 0.99853515625 0
vt 0.73458701372146606 0
vt 0.99853515625 0.68789732456207275
vt 0.73458701372146606 0.68789732456207275
vt 0.73312216997146606 0
vt 0.46917399764060974 0
vt 0.73312216997146606 0.68789732456207275
vt 0.46917399764060974 0.68789732456207275
vn 1 0 0
vn 1 0 0
vn 1 0 0
vn 1 0 0
vn 0 1 0
vn 0 1 0
vn 0 1 0
vn 0 1 0
vn -1 0 0
vn -1 0 0
vn -1 0 0
vn -1 0 0
vn 0 -1 0
vn 0 -1 0
vn 0 -1 0
vn 0 -1 0
vn 0 0 -1
vn 0 0 -1
vn 0 0 -1
vn 0 0 -1
vn 0 0 1
vn 0 0 1
vn 0 0 1
vn 0 0 1
f 2/2/2 1/1/1 3/3/3 4/4/4
f 6/6/6 5/5/5 7/7/7 8/8/8
f 10/10/10 9/9/9 11/11/11 12/12/12
f 14/14/14 13/13/13 15/15/15 16/16/16
f 18/18/18 20/20/20 19/19/19 17/17/17
f 22/22/22 21/21/21 23/23/23 24/24/24
