# Rhino

v 2.0715775489807129 -0.74507111310958862 1.5270887613296509
v 2.0715775489807129 -0.74507111310958862 1.6749829053878784
v 2.0715775489807129 0.61950427293777466 1.5270887613296509
v 2.0715775489807129 0.61950427293777466 1.6749829053878784
v 2.0715775489807129 0.61950427293777466 1.5270887613296509
v 2.0715775489807129 0.61950427293777466 1.6749829053878784
v -0.71050548553466797 0.61950427293777466 1.5270887613296509
v -0.71050548553466797 0.61950427293777466 1.6749829053878784
v -0.71050548553466797 0.61950427293777466 1.5270887613296509
v -0.71050548553466797 0.61950427293777466 1.6749829053878784
v -0.71050548553466797 -0.74507111310958862 1.5270887613296509
v -0.71050548553466797 -0.74507111310958862 1.6749829053878784
v -0.71050548553466797 -0.74507111310958862 1.5270887613296509
v -0.71050548553466797 -0.74507111310958862 1.6749829053878784
v 2.0715775489807129 -0.74507111310958862 1.5270887613296509
v 2.0715775489807129 -0.74507111310958862 1.6749829053878784
v 2.0715775489807129 -0.74507111310958862 1.5270887613296509
v -0.71050548553466797 -0.74507111310958862 1.5270887613296509
v 2.0715775489807129 0.61950427293777466 1.5270887613296509
v -0.71050548553466797 0.61950427293777466 1.5270887613296509
v 2.0715775489807129 -0.74507111310958862 1.6749829053878784
v -0.71050548553466797 -0.74507111310958862 1.6749829053878784
v 2.0715775489807129 0.61950427293777466 1.6749829053878784
v -0.71050548553466797 0.61950427293777466 1.6749829053878784
vt 0 0.048050802201032639
vt 0 0.094636760652065277
vt 0.44188553094863892 0.048050802201032639
vt 0.44188553094863892 0.094636760652065277
vt 0.98133748769760132 0
vt 0.93475157022476196 0
vt 0.98133748769760132 0.90389841794967651
vt 0.93475157022476196 0.90389841794967651
vt 0 0
vt 0 0.046585958451032639
vt 0.44188553094863892 0
vt 0.44188553094863892 0.046585958451032639
vt 0.93328672647476196 0
vt 0.88670074939727783 0
vt 0.93328672647476196 0.90389841794967651
vt 0.88670074939727783 0.90389841794967651
vt 0.44335037469863892 0
vt 0.44335037469863892 0.90389841794967651
vt 0.88523590564727783 0
vt 0.88523590564727783 0.90389841794967651
vt 0 0.096101604402065277
vt 0 0.99853515625
vt 0.44188553094863892 0.096101604402065277
vt 0.44188553094863892 0.99853515625
vn 1 0 0
vn 1 0 0
vn 1 0 0
vn 1 0 0
vn 0 1 0
vn 0 1 0
vn 0 1 0
vn 0 1 0
vn -1 0 0
vn -1 0 0
vn -1 0 0
vn -1 0 0
vn 0 -1 0
vn 0 -1 0
vn 0 -1 0
vn 0 -1 0
vn 0 0 -1
vn 0 0 -1
vn 0 0 -1
vn 0 0 -1
vn 0 0 1
vn 0 0 1
vn 0 0 1
vn 0 0 1
f 2/2/2 1/1/1 3/3/3 4/4/4
f 6/6/6 5/5/5 7/7/7 8/8/8
f 10/10/10 9/9/9 11/11/11 12/12/12
f 14/14/14 13/13/13 15/15/15 16/16/16
f 18/18/18 20/20/20 19/19/19 17/17/17
f 22/22/22 21/21/21 23/23/23 24/24/24
