# Rhino

v -0.10993250993540216 0.03828043297902517 -0.0081417401677641443
v -0.11751024423011386 -0.069756948571517097 0.0030504535467651417
v 0.06689637273654124 -0.08413817432640508 -0.061316008784973342
v 0.10117806938956567 0.064298520650696134 -0.034181046211716137
v -0.10147847817947608 0.059848743954338812 0.026565730299831891
v -0.10695323402585044 -0.055982162383912515 0.041664024301229952
v 0.085977011077091908 -0.070368352662275757 -0.026688102099003075
v 0.11448489415881979 0.081474273494468286 0.0017079943686332255
vn 0.65131765604019165 -0.51803916692733765 0.55445539951324463
vn 0.79811620712280273 0.54830271005630493 0.24974918365478516
vn -0.48383033275604248 0.63528686761856079 0.6019291877746582
vn -0.27687519788742065 -0.42931902408599854 0.85966581106185913
vn 0.63031589984893799 -0.61880159378051758 -0.46881383657455444
vn 0.38123378157615662 0.5011104941368103 -0.77688419818878174
vn -0.62816214561462402 0.61668723821640015 -0.47445672750473022
vn -0.81061482429504395 -0.57926702499389648 -0.085751138627529144
f 3//3 2//2 6//6 7//7
f 2//2 1//1 6//6
f 4//4 3//3 7//7
f 1//1 4//4 5//5
f 1//1 2//2 3//3
f 8//8 7//7 5//5
f 1//1 5//5 6//6
f 4//4 7//7 8//8
f 4//4 8//8 5//5
f 1//1 3//3 4//4
f 7//7 6//6 5//5
