# Rhino

v 0.035860521389320388 0.15610783167902306 -0.059734919239517487
v -0.11742206046535453 0.010308623082590285 -0.038249355091141413
v -0.097856629052722244 -0.10945241295124919 -0.044083110732734826
v 0.057998334200799695 -0.10369717895897643 -0.023902559278569963
v 0.055310006194464356 0.16937365404422874 -0.025106675375067639
v -0.1044397490250053 0.018539902022418786 0.0014030536091924062
v -0.078221949039626537 -0.10790603753897315 -0.0066615420139888304
v 0.080364631969048417 -0.10711555573373047 0.011544526942599692
vn -0.12258360534906387 -0.44472718238830566 0.88723784685134888
vn 0.9205162525177002 -0.28724896907806396 0.26483556628227234
vn 0.50939804315567017 0.785744309425354 0.35088399052619934
vn -0.44086679816246033 0.53249478340148926 0.72255504131317139
vn -0.15347190201282501 -0.83526253700256348 -0.52799892425537109
vn 0.71542876958847046 -0.27919426560401917 -0.64047813415527344
vn 0.44955378770828247 0.59358662366867065 -0.6675000786781311
vn -0.64337366819381714 0.70974379777908325 -0.28693917393684387
f 2//2 1//1 6//6
f 3//3 2//2 7//7
f 4//4 3//3 7//7
f 1//1 4//4 5//5
f 1//1 2//2 4//4
f 8//8 7//7 6//6
f 1//1 5//5 6//6
f 2//2 6//6 7//7
f 4//4 7//7 8//8
f 4//4 8//8 5//5
f 2//2 3//3 4//4
f 8//8 6//6 5//5
