# Rhino

v -0.077748026320358599 0.13565523111270156 -0.058090138000574054
v -0.029203985926560705 -0.1198911237977168 -0.015944416615765067
v 0.12329533123943437 -0.088578140088630269 -0.041036392973146762
v 0.10809875382035805 0.059639921039599607 -0.045348871848316596
v -0.10172437588906014 0.14369000883125163 -0.024827849725928219
v -0.048251386803957019 -0.12777556459982292 0.02085851446698439
v 0.10546607070688491 -0.090047550753842853 -0.0025805089275604542
v 0.085896194394868508 0.064180437597524786 -0.0099349232332028858
vn 0.3104337751865387 -0.38155028223991394 0.87066084146499634
vn 0.30793237686157227 0.65178501605987549 0.69307571649551392
vn -0.68435925245285034 0.65744000673294067 0.31531739234924316
vn -0.76305288076400757 -0.60047364234924316 0.23912696540355682
vn 0.37333232164382935 -0.78707730770111084 -0.49105218052864075
vn 0.42091181874275208 0.8513333797454834 -0.31315287947654724
vn -0.58222538232803345 0.39377397298812866 -0.71130561828613281
vn -0.56293988227844238 -0.51633626222610474 -0.64536470174789429
f 2//2 1//1 5//5
f 3//3 2//2 7//7
f 4//4 3//3 7//7
f 1//1 4//4 8//8
f 1//1 2//2 4//4
f 8//8 7//7 6//6
f 2//2 5//5 6//6
f 2//2 6//6 7//7
f 4//4 7//7 8//8
f 1//1 8//8 5//5
f 2//2 3//3 4//4
f 8//8 6//6 5//5
