# Rhino

v 0.050299897887262301 0.097725001479465917 -0.066989419380236948
v -0.056580982189420759 -0.032789449590847314 -0.025905832210131763
v 0.0012503790899465739 -0.12663664471289399 -0.024807475169157378
v 0.074998340900548133 0.044825700672361884 -0.053334242941206811
v 0.039601634173188294 0.10977145865841162 -0.027728411380732454
v -0.072464808585055551 -0.017142571996916767 0.0096138432073944458
v -0.006071887758990091 -0.11743237056456791 0.016237688004000939
v 0.064300077186473903 0.056872157851307475 -0.014073234941702428
vn -0.036840364336967468 -0.53142315149307251 0.84630507230758667
vn 0.75691473484039307 0.090607278048992157 0.6472020149230957
vn 0.039590124040842056 0.82034063339233398 0.57050317525863647
vn -0.95534354448318481 0.016913073137402534 0.29501301050186157
vn -0.18004553020000458 -0.87012439966201782 -0.45876702666282654
vn 0.96527141332626343 -0.071260668337345123 -0.25134238600730896
vn -0.092923432588577271 0.52889782190322876 -0.84358304738998413
vn -0.81135278940200806 -0.12337875366210938 -0.57138806581497192
f 1//1 4//4 8//8 5//5
f 2//2 1//1 5//5
f 3//3 2//2 7//7
f 4//4 3//3 7//7
f 1//1 2//2 4//4
f 8//8 7//7 6//6
f 2//2 5//5 6//6
f 2//2 6//6 7//7
f 4//4 7//7 8//8
f 2//2 3//3 4//4
f 8//8 6//6 5//5
