# Rhino

v -0.098193712226047891 -0.070655979873455621 -0.024813715822448207
v 0.11300571669650972 -0.036899340652901347 -0.016091869640389889
v 0.052373455590006099 0.099817716802504175 -0.057446245538213703
v -0.12336817537700023 0.041502717168826475 -0.02414599839670134
v -0.090445788728333087 -0.080705300292966853 0.015900430036289354
v 0.12563091056800299 -0.050646027618582279 0.021809404533878723
v 0.069209152800813523 0.090309053145055884 -0.019868282087684375
v -0.11562025187928565 0.031453396749315354 0.016568147462036442
vn 0.43553608655929565 0.68794071674346924 0.58055651187896729
vn -0.52227687835693359 0.39854907989501953 0.75391346216201782
vn -0.42302420735359192 -0.70527207851409912 0.56889528036117554
vn 0.85874909162521362 -0.38809263706207275 0.33456549048423767
vn 0.53379756212234497 0.68593007326126099 -0.49453020095825195
vn -0.88361066579818726 0.38509261608123779 -0.26633784174919128
vn -0.38254919648170471 -0.76016265153884888 -0.52517509460449219
vn 0.58869796991348267 -0.43746671080589294 -0.67974817752838135
f 1//1 4//4 8//8 5//5
f 2//2 1//1 5//5
f 3//3 2//2 7//7
f 4//4 3//3 8//8
f 1//1 2//2 3//3
f 8//8 7//7 5//5
f 2//2 5//5 6//6
f 2//2 6//6 7//7
f 3//3 7//7 8//8
f 1//1 3//3 4//4
f 7//7 6//6 5//5
