# Rhino

v 0.043326319568749938 -0.021691994435802969 -0.034232561118323165
v 0.059532032779306576 0.046116244972218307 -0.046951716447363484
v -0.048668087976495966 0.05051270360344487 -0.052878641735196991
v -0.059601726379321929 0.00040120636384538555 -0.05671887842557017
v 0.036419112779422891 -0.088975478291941357 -0.048339003568129826
v 0.040681450834234301 -0.019325642653129194 0.0085943909278656944
v 0.056887164044790883 0.048482596754891999 -0.0041247644011746243
v -0.051312956711011659 0.052879055386118673 -0.01005168968900811
v -0.062246595113837261 0.0027675581465193 -0.013891926379381463
v 0.031556310206978411 -0.091244295074043524 -0.0057309611929105275
vn 0.80848920345306396 -0.13316348195075989 -0.57324749231338501
vn 0.69792813062667847 0.40691393613815308 -0.58933639526367188
vn -0.14890411496162415 0.39925616979598999 -0.90466684103012085
vn -0.80239355564117432 -0.24123446643352509 -0.54586678743362427
vn 0.35059177875518799 -0.32786014676094055 -0.87726455926895142
vn 0.45619389414787292 -0.10543796420097351 0.88361185789108276
vn 0.58434939384460449 0.58826905488967896 0.55899494886398315
vn -0.47201696038246155 0.55921870470046997 0.68152362108230591
vn -0.75856256484985352 -0.24693883955478668 0.60299587249755859
vn 0.044722802937030792 -0.73769444227218628 0.67365187406539917
f 2//2 7//7 6//6 1//1
f 3//3 8//8 7//7 2//2
f 4//4 9//9 8//8 3//3
f 5//5 10//10 4//4
f 1//1 6//6 10//10
f 1//1 3//3 2//2
f 3//3 5//5 4//4
f 3//3 1//1 5//5
f 10//10 6//6 9//9
f 8//8 6//6 7//7
f 8//8 9//9 6//6
f 10//10 9//9 4//4
f 1//1 10//10 5//5
