# Rhino

v 0.089105190063952122 -0.11123803708699802 -0.036216232687436567
v 0.014747653617218859 0.11330595218608466 -0.046754612349782884
v -0.070739222714734873 0.090005871464102882 -0.040533936812365334
v -0.083881400962479091 -0.03538540806084127 -0.036984368525571132
v 0.10353789958063686 -0.12150035299382483 0.0022672979226963652
v 0.027322702324676262 0.11362101018782397 -0.0059373828310030352
v -0.068863229668204684 0.089341780015342293 0.0024125179949962827
v -0.088716709697989615 -0.043778514528515514 0.0046917737151664363
vn -0.30821657180786133 0.42131456732749939 0.85293406248092651
vn -0.34944203495979309 -0.68348222970962524 0.64089179039001465
vn 0.67330056428909302 -0.56546419858932495 0.47635766863822937
vn 0.70986396074295044 0.42280346155166626 0.5633208155632019
vn -0.58939462900161743 0.62901687622070313 -0.50690406560897827
vn -0.42614859342575073 -0.79702800512313843 -0.42795300483703613
vn 0.62863320112228394 -0.59723323583602905 -0.49812930822372437
vn 0.78338640928268433 0.4467567503452301 -0.43210434913635254
f 2//2 1//1 5//5 6//6
f 3//3 2//2 7//7
f 4//4 3//3 7//7
f 1//1 4//4 8//8
f 1//1 2//2 4//4
f 8//8 7//7 6//6
f 2//2 6//6 7//7
f 4//4 7//7 8//8
f 1//1 8//8 5//5
f 2//2 3//3 4//4
f 8//8 6//6 5//5
