# Rhino

v -0.066280774772167206 -0.09198392927646637 -0.010852147825062275
v 0.066280774772167206 -0.09198392927646637 -0.010852147825062275
v -0.066280774772167206 0.09198392927646637 -0.010852147825062275
v 0.066280774772167206 0.09198392927646637 -0.010852147825062275
v -0.066280774772167206 0.09198392927646637 -0.010852147825062275
v 0.066280774772167206 0.09198392927646637 -0.010852147825062275
v -0.066280774772167206 0.09198392927646637 0.010852147825062275
v 0.066280774772167206 0.09198392927646637 0.010852147825062275
v -0.066280774772167206 0.09198392927646637 0.010852147825062275
v 0.066280774772167206 0.09198392927646637 0.010852147825062275
v -0.066280774772167206 -0.09198392927646637 0.010852147825062275
v 0.066280774772167206 -0.09198392927646637 0.010852147825062275
v -0.066280774772167206 -0.09198392927646637 0.010852147825062275
v 0.066280774772167206 -0.09198392927646637 0.010852147825062275
v -0.066280774772167206 -0.09198392927646637 -0.010852147825062275
v 0.066280774772167206 -0.09198392927646637 -0.010852147825062275
v -0.066280774772167206 -0.09198392927646637 -0.010852147825062275
v -0.066280774772167206 -0.09198392927646637 0.010852147825062275
v -0.066280774772167206 0.09198392927646637 -0.010852147825062275
v -0.066280774772167206 0.09198392927646637 0.010852147825062275
v 0.066280774772167206 -0.09198392927646637 -0.010852147825062275
v 0.066280774772167206 -0.09198392927646637 0.010852147825062275
v 0.066280774772167206 0.09198392927646637 -0.010852147825062275
v 0.066280774772167206 0.09198392927646637 0.010852147825062275
vt 0.32061293721199036 0.4895453155040741
vt 0.32061293721199036 0.97762578725814819
vt 0.99853515625 0.4895453155040741
vt 0.99853515625 0.97762578725814819
vt 0.080153234302997589 0
vt 0.080153234302997589 0.4895453155040741
vt 0.15884162485599518 0
vt 0.15884162485599518 0.4895453155040741
vt 0.32061293721199036 0
vt 0.32061293721199036 0.4880804717540741
vt 0.99853515625 0
vt 0.99853515625 0.4880804717540741
vt 0 0
vt 0 0.4895453155040741
vt 0.078688390552997589 0
vt 0.078688390552997589 0.4895453155040741
vt 0.31914809346199036 0
vt 0.24045969545841217 0
vt 0.31914809346199036 0.67938709259033203
vt 0.24045969545841217 0.67938709259033203
vt 0.23899485170841217 0
vt 0.16030646860599518 0
vt 0.23899485170841217 0.67938709259033203
vt 0.16030646860599518 0.67938709259033203
vn 0 0 -1
vn 0 0 -1
vn 0 0 -1
vn 0 0 -1
vn 0 1 0
vn 0 1 0
vn 0 1 0
vn 0 1 0
vn 0 0 1
vn 0 0 1
vn 0 0 1
vn 0 0 1
vn 0 -1 0
vn 0 -1 0
vn 0 -1 0
vn 0 -1 0
vn -1 0 0
vn -1 0 0
vn -1 0 0
vn -1 0 0
vn 1 0 0
vn 1 0 0
vn 1 0 0
vn 1 0 0
f 2/2/2 1/1/1 3/3/3 4/4/4
f 6/6/6 5/5/5 7/7/7 8/8/8
f 10/10/10 9/9/9 11/11/11 12/12/12
f 14/14/14 13/13/13 15/15/15 16/16/16
f 18/18/18 20/20/20 19/19/19 17/17/17
f 22/22/22 21/21/21 23/23/23 24/24/24
